<svg xmlns="http://www.w3.org/2000/svg" viewBox="0 0 258.33 212.69"><defs><style>.cls-1{fill:#acb5b5;}.cls-2{fill:#f6f5e3;}.cls-3{fill:#7b878e;}</style></defs><g id="Layer_2" data-name="Layer 2"><g id="Layer_2-2" data-name="Layer 2"><path class="cls-1" d="M0,118c3.84,0,7.79.29,7.5-5.45,0-.85.12-2.17,1.43-2.25s1.69,1,2,1.91c.94,2.77,2.11,5.2,5.55,5.31.14.64.53,1.76.36,1.85-3.48,1.87-5.87,4.26-6.48,8.57-.17,1.26-2.43.07-2.28-1.48C8.73,119.6,4,120.88,0,121Z"/><path class="cls-2" d="M35.74,68A62,62,0,0,1,51.35,32.6c11-12.51,25.41-18.79,42.45-18a3.21,3.21,0,0,1-.31,3.32c-3.19,3.66-.78,7,1.88,8.29,7.28,3.64,12.3,9.54,17.81,15.12,4.82,4.89,5.11,5.27-.15,9.95-2.43,2.16-4.44,4.58-2.25,7.65,1.54,2.16,3,4.61,6,5.58,3.6,1.16,4.74,3.92,3.18,7.37-1.67,3.68-1,7.91-3.06,11.52a1.75,1.75,0,0,0,1.81,2.65c-.49,1.54-1.82.8-2.8,1,.17-.91.53-1.85-.4-2.56-.09-.07-.63.19-.67.36-.24,1,0,1.86,1.14,2.14,0,.66.15,1.5-.18,1.93-.76,1-.84-.31-1.26-.54-1.69-.89-3.41-1.84-4.49.79-1.25.25-2.26-.23-3.79,1-3.23,2.51-6.7,5.19-11.12,5.77-4.75.62-9.46,1.62-14.17,2.29-2.77.4-5.65,1.67-8.76.6-6.73-2.33-13.8-3.29-19.92-7.72-4.86-3.52-10.05-6.48-12-12.42-1-3-2.32-2.37-4.22-1.71-.18-.65-.37-1.29-.55-1.94,0-.66,0-1.33.07-2ZM76.22,39c-7.5,0-14,6.06-14.14,13.14-.15,8.35,5.64,14.25,14,14.25,7.57,0,13.2-6.16,13.18-14.43S84.61,39,76.22,39Zm23.12,34c-5.36-.45-9.08,2-12.07,5.52-2.77,3.27-1.34,8.35,2.59,9.25a14.43,14.43,0,0,0,9.32-.61c3.72-1.67,6.7-8.23,5.35-12.61C103.68,71.73,100.81,73.53,99.34,72.94Z"/><path class="cls-2" d="M6,212c-3.5,1-4.31-.62-4-3.79.58-6,9-14.9,15.38-15.9,5.53-.88,11-1.37,15.31-5.95,2.64-2.78,7-2.94,10.76-3.28a3.23,3.23,0,0,0,3.38-2.79c3.67-13.42,15.19-20.47,28.76-17.73,1.12.23,2.28.26,3.43.38l3,1c.4,1.33,1.61,1.22,2.62,1.49l.26-.1-.26.08a.93.93,0,0,0,1.33.49l1.67.26a1.28,1.28,0,0,0,1.24,1.17c5.86,2.9,9.3,8.85,15,11.95,1.89,4.19,5.2,7.81,5.17,12.78A122.28,122.28,0,0,0,91,182c-14.59-6.47-28.23-3.94-42.84,1.59,9.42,1.92,15.47,7.51,20.87,13.85,2.2,2.58-.62,2.63-2.12,2.6-12.52-.33-24.72,1.25-37.07,3.61C21.24,205.25,13,206.39,6,212Z"/><path class="cls-1" d="M118.73,86.07a1.75,1.75,0,0,1-1.81-2.65c2-3.61,1.39-7.84,3.06-11.52,1.56-3.45.42-6.21-3.18-7.37-3-1-4.48-3.42-6-5.58-2.19-3.07-.18-5.49,2.25-7.65,5.26-4.68,5-5.06.15-9.95-5.51-5.58-10.53-11.48-17.81-15.12-2.66-1.32-5.07-4.63-1.88-8.29a3.21,3.21,0,0,0,.31-3.32c7.77-.42,15.06,1.6,22.17,4.45a4.36,4.36,0,0,0,1.83,3.64C119.75,24,120,26,119,28c-.31.13-1,.05-.37.68l.37-.67c4.85.14.55,2.3.8,3.85,2.82-1.56,5.16,0,7.59.78-.19,2.73-3.56-.76-3.4,2,.14,2.35,1.83,3.61,3.94,4.32s4,1.36,6.08,2l0,0c-2.64.9-3.68,2.56-1.47,4.68A5,5,0,0,1,134,50.06l-1.94.14c-.08-1.79-1.39-2.53-2.67-1.91s-.33,1.91.39,2.66.36,1.18.36,1.95c0,3-.63,6.29,2.54,8.34-.75,1.13,1.25,3.7-1.53,3.6-3.44-.13-3.76,2.37-3.07,4.16,1.38,3.59-4.31,4.59-2.42,8-3.25.15-1.79.92-.26,1.79.43.24,1.44.7.31,1.27-2.9,1.43-2.14,4.33-2.8,6.66-.67.5-.61,1,0,1.44-.2,1.35-.69,2.44-1.67.53C120.65,87.47,120.85,85.74,118.73,86.07Zm7.76-39.34.16-.22-.26,0Zm2,12,.15-.24-.23,0Z"/><path class="cls-3" d="M118.73,86.07c2.12-.33,1.92,1.4,2.54,2.61,1,1.91,1.47.82,1.67-.53,1.2-.51.44-1,0-1.44.66-2.33-.1-5.23,2.8-6.66,1.13-.57.12-1-.31-1.27-1.53-.87-3-1.64.26-1.79-1.89-3.4,3.8-4.4,2.42-8-.69-1.79-.37-4.29,3.07-4.16,2.78.1.78-2.47,1.53-3.6-3.17-2.05-2.52-5.39-2.54-8.34,0-.77.28-1.28-.36-1.95s-1.81-2-.39-2.66,2.59.12,2.67,1.91c2.6.55,2.1,4.74,5.53,4.59.8,0,.73,1.77-.2,2.34s-1.79,1.51-1.08,2.33c2.82,3.29,2.13,5.73-1.43,7.74,2.67,2.65-.77,5.62.42,8.33,1.53,3.48-1,2.69-2.68,2.44-1.27-.19-2.89-3.11-3.48,0-.21,1.08-.31,4.26,2.47,4.84.91.19,1.83.33,2.93.52-1.24.87-3,0-3.59,1.71L131,85c-2.76.62-1.58,5.18-5.07,5.07.35-.69.69-1.38,1-2.08a1.47,1.47,0,0,0,.42-.13c.06,0,0-.19.07-.29-.14.16-.27.33-.41.5-1.4.1-2.85.17-1,2-1.91,3.42-3,7.3-7.31,9-1.39.56-1.58,3.58-2.9,4.86-4.2,4-9.88,5.45-15,7.75-.95.42-3.13,1.87-2.82-1.27.07-.62.18-1.26-.52-1.65-.12.61-.25,1.22-.37,1.82.5,3.56-1.89,4.29-4.61,4.85-2.89.6-5.78,1.78-4.38,5.41,1.07,2.76-.46,2.44-1.81,2-2.8-.86-5.42.07-8.5.44.91,1.53,2.76,2.86,1.28,4.79-8.81-.32-16.16-4.23-22.9-9.51-.8-.62-2-1.42-1.33-2.86,2.86-1.73,2.49-3.25,1-6.27-1.36-2.74-4.83-4-4.79-7.43v0c2.17-2,4-1.64,4.55,1.19,1.15,6.42,7.91,5.33,11.26,8.75.24.25,1.24-.12,1.82-.35,5.8-2.31,11.62-2.09,17.55-.45,3,.82,4.95-3.18,8.13-2-1.38-5.31,2.36-5.35,5.84-5.7a2.12,2.12,0,0,0,1.29-.7c1.23-1.5,1.12-1.06,2.82-.74,2.35.45,5.32,2.5,7.1-.53.83-1.41-3.3-3.29-.48-5.47-3.58-1.88-1.17-4.46-.81-6.81,1.08-2.63,2.8-1.68,4.49-.79.42.23.5,1.53,1.26.54.33-.43.13-1.27.18-1.93l-.07.06C116.91,86.87,118.24,87.61,118.73,86.07Zm-3.89,11.79c-.8.79-1.54,1.63-1.31,2.87,0,.11.64.25.84.14,1-.58.74-1.67.88-2.59l.33-.75ZM62.72,113.25l.1-.44-.59.13a1.45,1.45,0,0,0,.16.4S62.61,113.29,62.72,113.25Zm6.83,0-.2.34.34,0Zm-3.12.52.2-.29-.31,0Zm-1.92-.08.15-.23-.22,0Zm11-1,.21-.32-.35,0Z"/><path class="cls-1" d="M51,102c0,3.44,3.43,4.69,4.79,7.43,1.49,3,1.86,4.54-1,6.27-3-.45-4.43-3-6-5-6.65-8.48-12.1-17.6-12.95-28.73l.3-5.07c1.9-.66,3.25-1.3,4.22,1.71,1.9,5.94,7.09,8.9,12,12.42,6.12,4.43,13.19,5.39,19.92,7.72,3.11,1.07,6-.2,8.76-.6,4.71-.67,9.42-1.67,14.17-2.29,4.42-.58,7.89-3.26,11.12-5.77,1.53-1.18,2.54-.7,3.79-1-.36,2.35-2.77,4.93.81,6.81-2.82,2.18,1.31,4.06.48,5.47-1.78,3-4.75,1-7.1.53-1.7-.32-1.59-.76-2.82.74a2.12,2.12,0,0,1-1.29.7c-3.48.35-7.22.39-5.84,5.7-3.18-1.18-5.17,2.82-8.13,2-5.93-1.64-11.75-1.86-17.55.45-.58.23-1.58.6-1.82.35-3.35-3.42-10.11-2.33-11.26-8.75C55,100.38,53.17,100,51,102c-.38-.43-.62-1.37-1.4-.39Zm4.35,11.49.22.15,0-.24Zm4.15-7.18-.16.25.26,0Z"/><path class="cls-3" d="M124,164.66c7.18,3.07,14.72,5.77,16,15.1.63,2.87-3.19,3.6-3,6.26a17.11,17.11,0,0,0-4.81,12.06c0,2.76-1.1,3.42-3.15,1.54-4.61-4.2-10.08-5.83-16.17-5.82-2.67-3.46-2.63-7.76-3.82-11.68-.69-2.27-1.33-5.42-4.88-5.54C108.69,169.14,115.18,165,124,164.66Z"/><path class="cls-2" d="M19.06,25.79c-1.86,0-2.18-1.23-2.1-2.67.21-4.45-1.53-6.69-6.31-6.51-1.45.06-4.31.63-4.31-2,0-2.24,2.58-1.77,4-1.83,4.17-.15,5.88-2.2,5.9-6.22A32.13,32.13,0,0,1,17,1.64,1.7,1.7,0,0,1,18.59,0c1.23-.1,1.8.66,1.94,1.77.18,1.31.38,2.63.43,4,.16,4,2.26,6,6.2,6.33,1.49.13,3.7-.49,3.73,2.07,0,2-1.84,2.39-3.21,2.5-4.34.34-6.8,2-6.06,6.83C21.86,25.07,20.57,25.73,19.06,25.79Z"/><path class="cls-3" d="M119,28c1-2.08.76-4-1.19-5.33A4.36,4.36,0,0,1,116,19.07c9.49,3.61,16.05,10.85,22.09,18.48,1.08,1.36,1.21,3.9,2.73,5.45-.32,1,.24,1.37,1,1.61a.87.87,0,0,0,.7.45c-2.88.57-6.18.49-6.78,4.56,0,.22-1.15.29-1.76.44a5,5,0,0,0-1.49-4.35c-2.21-2.12-1.17-3.78,1.47-4.68a1.9,1.9,0,0,0,.4-.21c.06,0,0-.19,0-.29l-.42.53c-2-.68-4.06-1.35-6.08-2s-3.8-2-3.94-4.32c-.16-2.78,3.21.71,3.4-2-2.43-.81-4.77-2.34-7.59-.78-.25-1.55,4-3.71-.8-3.85Z"/><path class="cls-2" d="M209.88,106.8c-3,1.09-7.3,1-5.78,6.23-1.67,2-3.13,3.32-4-.63-.61-2.76-1.55-5.47-5.43-4.6a2,2,0,0,1-2.28-1.47c-.37-1.65,1.19-1.72,2.25-1.92,3.48-.67,5.85-2.15,5.56-6.25-.09-1.4,1.81-2.41,2.07-1.18C203.23,101.66,207.56,103.39,209.88,106.8Z"/><path class="cls-2" d="M250.64,126.18c.6,4.2,3.17,6.54,7.69,7.22-5.68,3.2-5.68,3.2-8.66,8.27-1.42-3.59-2.13-7.74-7.76-7.49,5.75-.37,5.65-5.39,8.07-8.22A.49.49,0,0,0,250.64,126.18Z"/><path class="cls-2" d="M164.4,128.05c-.72.83-.41,2.5-1.86,2.66s-1.4-1.16-1.58-2.06c-.81-4-4.74-1.76-7.26-3.91,5,.07,5.46-5.28,9.28-6.51a23.54,23.54,0,0,1,1,2.24c.8,2.3,4.41,1.59,4.64,3.76C168.87,126.66,164.3,125,164.4,128.05Z"/><path class="cls-3" d="M182.07,25.75c-1.18,1.48-2,3.48-3.13,3.71-1.62.32-2.89-1.62-3.13-3.13-.29-1.88,1.55-2.88,3-3.19C180.67,22.77,180.79,24.92,182.07,25.75Z"/><path class="cls-1" d="M109.06,192c.57.45.73.91,0,1.36-.18,1.23-1.29,1.3-2.12,1.8-6.79,4.11-13.35,8.48-15.87,16.67L6,212c7-5.61,15.26-6.75,23.86-8.4,12.35-2.36,24.55-3.94,37.07-3.61,1.5,0,4.32,0,2.12-2.6-5.4-6.34-11.45-11.93-20.87-13.85C62.77,178,76.41,175.48,91,182A122.28,122.28,0,0,1,109.06,192Z"/><path class="cls-1" d="M190.94,211.93c-32,.21-64,1.63-96-.06,2.12-2.44,5.62-1.61,8.07-3.45,5.36-4,11.83-3.91,18.06-4.18,2.07-.08,5.16-.12,6.12,2.35,2.06,5.3,5.88,4.18,9.83,3.36,1-.21,2.1-.36,2.44-1.4.43-1.3-.85-1.57-1.65-2.06s-1.93-1-1.66-2.18c.32-1.52,1.69-1.44,2.81-1.33,4.24.41,7.37-2,10.23-4.41,3.66-3,7.88-4,12.29-4.66a48,48,0,0,1,4.9-.65c4-.17,3.79-2.19,2.3-4.87.12-.16.25-.31.38-.46,6.14,1.62,11.53,4.35,14.92,10a2,2,0,0,0,2.05,1c.31,1.75.32,3.62,1,5.22.81,1.91.91-.93,1.67-.47l0,0C188.08,206.89,190.9,209,190.94,211.93Z"/><path class="cls-2" d="M168.68,188.39c1.49,2.68,1.67,4.7-2.3,4.87a48,48,0,0,0-4.9.65c-4.41.7-8.63,1.61-12.29,4.66-2.86,2.38-6,4.82-10.23,4.41-1.12-.11-2.49-.19-2.81,1.33-.27,1.23.81,1.66,1.66,2.18s2.08.76,1.65,2.06c-.34,1-1.43,1.19-2.44,1.4-4,.82-7.77,1.94-9.83-3.36-1-2.47-4-2.43-6.12-2.35-6.23.27-12.7.16-18.06,4.18-2.45,1.84-6,1-8.07,3.45H91.07c2.52-8.19,9.08-12.56,15.87-16.67.83-.5,1.94-.57,2.12-1.8a5.66,5.66,0,0,0,3.8.4c6.09,0,11.56,1.62,16.17,5.82,2.05,1.88,3.16,1.22,3.15-1.54A17.11,17.11,0,0,1,137,186C147.71,184.62,158.24,185.88,168.68,188.39Z"/><path class="cls-1" d="M168.68,188.39c-10.44-2.51-21-3.77-31.69-2.37-.17-2.66,3.65-3.39,3-6.26,3.26-3.76,6.4-7.64,9.81-11.25a17.81,17.81,0,0,1,15.2-5.9c10.17,1.14,20.11,3.28,28.23,10.36,2.53,2.21,4.19,4.55,4,8-2,1-3.83,1.33-6,0-7.46-4.62-15.84-3.92-24.11-3.86-3.23,0-3.52,2.91-4.49,4.62-1.14,2,1.68,2.28,2.9,3.14s3.23,1.08,3.53,3.12C168.93,188.08,168.8,188.23,168.68,188.39Z"/><path class="cls-3" d="M190.94,211.93c0-2.9-2.86-5-2.2-8.12.6-.16,1.58-.15,1.76-.51,2.73-5.61,7.08-5.49,12.55-4.7,6.67,1,13.54.53,20.33.62.2,0,.41-.8.61-1.23,3.39.61,4.5,3.69,6.21,6,1.5,2,2.31,4.77,1.32,7.08-1.1,2.57-3.85,1-5.8,1C214.12,212,202.53,213.12,190.94,211.93Z"/><path class="cls-3" d="M169.06,187.93c-.3-2-2.23-2.2-3.53-3.12s-4-1.14-2.9-3.14c1-1.71,1.26-4.6,4.49-4.62,8.27-.06,16.65-.76,24.11,3.86,2.2,1.36,4,1,6,0,4.93,3.15,4.09,7.58,2.71,12.13l.08-.07a1.87,1.87,0,0,0-2,1,1.37,1.37,0,0,1-.87.08c-.41-.64-.81-1.94-1.68-1.19-2.31,2-5.46,3.43-5.5,7.19l.08-.08c-1.5.32-2.75-.36-4-1a2,2,0,0,1-2.05-1C180.59,192.28,175.2,189.55,169.06,187.93Z"/><path class="cls-1" d="M197.15,194.08A1.37,1.37,0,0,0,198,194a1.91,1.91,0,0,0,2-1l-.08.07c3.75-.19,7.38-.86,11.28-.4,4.95.58,9.11,2.06,12.74,5.32-.2.43-.41,1.24-.61,1.23-6.79-.09-13.66.34-20.33-.62-5.47-.79-9.82-.91-12.55,4.7-.18.36-1.16.35-1.76.51l0,0,1.35-3.77-.08.08Z"/><path class="cls-1" d="M226,161.36c1.25,1.24,2.91,2.52,2.45,3.64s-1.13,3.56-2.74,3.43a3.21,3.21,0,0,1-2.69-3.54C223.31,163.58,224.91,162.56,226,161.36Z"/><path class="cls-1" d="M193.48,145.3c-.61,1.65-1.8,3-3.14,2.94-1.88-.05-2.92-2.16-3.33-3.58-.34-1.17,1.67-2.46,3-2.36C191.62,142.43,192.53,144.08,193.48,145.3Z"/><path class="cls-3" d="M130.94,85.07l1.69.35c-.13.07-.29.23-.38.19-.43-.17-.84-.39-1.26-.6Z"/><path class="cls-1" d="M97,110.6c.12-.6.25-1.21.37-1.82.7.39.59,1,.52,1.65l-.47-.08Z"/><path class="cls-3" d="M76.22,39c8.39,0,13,4.57,13,13S83.63,66.35,76.06,66.35c-8.34,0-14.13-5.9-14-14.25C62.21,45,68.72,39,76.22,39Z"/><path class="cls-1" d="M99.34,72.94c1.47.59,4.34-1.21,5.19,1.55,1.35,4.38-1.63,10.94-5.35,12.61a14.43,14.43,0,0,1-9.32.61c-3.93-.9-5.36-6-2.59-9.25C90.26,74.92,94,72.49,99.34,72.94Z"/><path class="cls-3" d="M116,87c-1.19-.28-1.38-1.13-1.14-2.14,0-.17.58-.43.67-.36.93.71.57,1.65.4,2.56Z"/><path class="cls-3" d="M119,28.05l-.37.67c-.62-.63.06-.55.37-.68Z"/><polygon class="cls-3" points="126.49 46.73 126.39 46.48 126.65 46.51 126.49 46.73"/><polygon class="cls-3" points="128.47 58.73 128.39 58.46 128.62 58.49 128.47 58.73"/><path class="cls-1" d="M115.26,98.28c-.15.92.14,2-.89,2.59-.2.11-.82,0-.84-.14-.23-1.24.51-2.08,1.31-2.87A5.55,5.55,0,0,0,115.26,98.28Z"/><path class="cls-1" d="M62.72,113.25c-.11,0-.3.13-.33.09a1.45,1.45,0,0,1-.16-.4l.59-.13Z"/><polygon class="cls-1" points="69.55 113.24 69.69 113.61 69.34 113.58 69.55 113.24"/><path class="cls-1" d="M114.84,97.86l.74-.33c-.11.25-.22.5-.32.75A5.55,5.55,0,0,1,114.84,97.86Z"/><polygon class="cls-1" points="66.43 113.76 66.32 113.43 66.63 113.47 66.43 113.76"/><polygon class="cls-1" points="64.51 113.68 64.44 113.41 64.67 113.45 64.51 113.68"/><polygon class="cls-1" points="75.49 112.73 75.35 112.37 75.7 112.41 75.49 112.73"/><path class="cls-3" d="M51,102l-1.39-.41c.78-1,1,0,1.4.39Z"/><polygon class="cls-3" points="55.34 113.53 55.59 113.44 55.56 113.68 55.34 113.53"/><polygon class="cls-3" points="59.49 106.35 59.59 106.64 59.33 106.6 59.49 106.35"/><path class="cls-1" d="M134,41.06l.42-.53c0,.1,0,.24,0,.29a1.9,1.9,0,0,1-.4.21Z"/></g></g></svg>