<svg xmlns="http://www.w3.org/2000/svg" viewBox="0 0 234.5 490.72"><defs><style>.cls-1{fill:#181e2d;}.cls-2{fill:#a5afad;}.cls-3{fill:#eef1e8;}.cls-4{fill:#c9cdc5;}.cls-5{fill:#849194;}.cls-6{fill:#889598;}</style></defs><g id="Layer_2" data-name="Layer 2"><g id="Layer_1-2" data-name="Layer 1"><path class="cls-1" d="M33.2,438.76c.3-11.26.49-22.52,1-33.77.14-3.14-1.81-5.52-2.09-8.55a28,28,0,0,1,.1-6.6c.91-20.42,2-40.83,1.87-61.29,0-4-1.27-5.1-5.19-4.9-7.29.37-14.6.25-21.9.15-5.27-.07-6.54-1.66-6.87-7C-1,298.9,7.45,285.31,19.44,273.23c3.86-3.89,7.5-8,11.45-11.8,2.07-2,2.29-4.32,2.29-6.83q0-72.82,0-145.65c0-9.51.12-19,3.11-28.12,2.1-6.46,5.19-12.21,10.69-16.41s10.14-3.82,15.11.92c6.35,6,8.8,14.29,12.76,23.17.84-5.18,1.5-9.25,2.17-13.32,3.39-20.73,10.24-40.2,21.37-58A50.32,50.32,0,0,1,113.2,1.81c4.5-3,7.18-2.13,11.27,1.6,9.41,8.58,16.27,18.94,22.23,30,.29.74.57,1.47.85,2.21a12.42,12.42,0,0,0,2.27,5.82q2.09,6.47,4.16,12.92c.32,1,.63,2,1,3.08,3.51,12.86,5,26.12,7,39.28,2.19-2.64,1.7-5.52,1.78-8.28.38-12.26,7.23-24.61,18-26.95l1.89,0,5.05,1.61c9.53,6.46,11.65,16.36,13.07,26.94,4,30.07,1.23,60.27,2.19,90.4.81,25.59.42,51.21.44,76.82a8.87,8.87,0,0,0,2.58,6.14c7.49,8.86,15.3,17.47,21.42,27.45,5.38,8.78,6.52,18.29,6.05,28.22-.16,3.42-2,5-5.51,4.87-7.47-.21-14.94-.05-22.39-.42-3.56-.18-4.6.9-4.46,4.43.75,18.75,1.3,37.51,1.94,56.27.19,5.79.85,11.5-1.16,17.25-1.39,4,.53,8.19.6,12.34.29,16.62.75,33.24,1.15,49.85-1.65-.32-3.39-.63-3.65-2.71-.54-4.38-.89-8.78-1.51-13.14s.35-8.95-1.7-13.13c0-1,0-2,0-3,.72-9.29-.48-18.53-.62-27.8,0-2.44-1.3-3.23-3.57-2.7-4.95-.16-9.9-.49-14.84-.44-3.74,0-7.55-.61-11.21.68-2.7-.35-2.75,1.42-2.9,3.39-.39,4.94-1.08,9.86-1.42,14.8-.94,13.78-4.08,27.48-1.8,41.4-3.74.92-1.3,3.84-1.83,5.79-.31,1.15-.29,2.43-1.91,2.38-1.31,0-1.48-1.11-1.59-2.12-.39-3.7-1.66-7.17-1.24-11.1,1.78-16.83,3.17-33.7,4.67-50.56.11-1.27.59-3-.85-3.63-4-1.83-2.94-5.32-2.56-8.21,2.83-21.26.77-42.87,4.7-64.05.22-1.18.91-3.47-1.47-3.39-1.89.07-1.51,1.7-1.54,3.33-.14,6.66-.84,7.12-8.1,7.44-1.37.06-3.61-.57-3.44,1.65.23,3.08-1.69,3.91-3.75,5.06-3.58,2-7.07,4.19-10.6,6.3-2.28-.05-3.24,2.1-5,3-3.81,1.48-7.69,2.49-11.84,2-2-.26-3.75-2.16-6-1.17l0,.11c0-1.8-1.3-1.07-2.21-1.06-2.87-1.32-4.22-4.7-8.6-4.27-6.83.68-8.64-1.37-9.41-8.27-.34-3.06-1.16-4.5-4.59-3.84-4.75.91-7.11-1.21-7.06-6.21,0-1.93.62-4.22-1.29-6.13-1.45,2.33-1,4.45-.55,6.49a113,113,0,0,1,1.77,16.32c.81,15.4,1.81,30.8,2.69,46.2.14,2.47,1.13,5.7-.89,7.16-4.49,3.25-3,7.07-2.26,11.11,1.06,5.72,2.1,11.46,2.83,17.22.76,5.93,1.18,11.9,1.66,17.86.11,1.46.23,3.46-1.54,3.79-2.1.39-1.86-1.87-2.36-3.13-.77-2,0-4.4-1.79-6.07a40,40,0,0,0-1.61-10.25c.22-1.43.39-2.84-.76-4l-.36-3c.48-6.71-2.4-12.95-2.81-19.55-.12-2-1.74-2.67-3.69-2.15l-8.1-.06c-2.31,0-4.62-.09-6.93,0-10.87.21-10.88.22-11.63,10.9-.16,2.31-.26,4.61-.39,6.92l-2,25.91c-1.57,4-2.59,8-1.29,12.24l-.1,2c-2.54-3.4-.51-7.77-2.4-11.3v-1.9c0-1.33,0-2.66-.07-4ZM147.49,120.22l-.62-1.39c-.57-1.7-1-3.45-1.73-5.09-3.17-7.34-9-12.65-14.23-18.42l-1-1a9.46,9.46,0,0,0-6-4,7.57,7.57,0,0,0-6.12-2.37c-10.45-1-15.32,6.8-20.58,13.49-10.78,13.68-13.41,30.33-16.07,46.9C79,157.62,76.55,167,76.29,176.54c-.34,12.85-6.55,24.18-8.42,36.58a14.54,14.54,0,0,0-2.11,6.09L56.1,239.08a147.47,147.47,0,0,1-15,19.89l-18,19.83A5.73,5.73,0,0,0,20,282.15c-1.93,1.81-3.94,3.55-4.77,6.2-.94,1-2.57,2.22-1,3.34,1.2.84,2-1,2.57-2.08l4.8-5.48a3.3,3.3,0,0,0,1.84-2.2l18.87-21.61a93,93,0,0,0,15.16-19.69c4.7-5.48,6.43-12.47,9.4-18.82a20.2,20.2,0,0,0,3.21-8.64A191,191,0,0,0,82.25,160.5l.28.14.26-.17c.51,13.4.4,26.79,0,40.21-.22,8.37-1.1,16.87,1.16,25.16a2,2,0,0,0,.09,2.27c-.34,12-.77,24.07-1,36.11-.16,8.94,0,8.94,8.9,9.55,2.43.69,4.92.25,7.38.38,3.94.21,5.22-1.68,5-5.38-.15-3.14,0-6.29.15-9.44.5-12,.52-12.1,12.6-12.2,12.77-.11,12.2-2.95,13.68,12l.09,2c0,12.09,0,12.09,10.84,11.84,7.2.62,7.7.65,8.15-6.41.55-8.37.16-16.8.09-25.21-.19-22,1.53-44,.89-66.07,0-.67-.07-1.34-.11-2l.08-4,0-1.92c1-4.68-1.23-9.55.8-14.17,2.92-.83,2.28-2.14.49-3.6.34-3.1,1.06-6.21-.54-9.19a35.36,35.36,0,0,0-2.18-14A11.87,11.87,0,0,0,147.49,120.22ZM14.35,293c.12-.49.77-.89.1-1.51s-1,.11-1.46.26c-.13.09-.33.14-.4.27-1.19,2.15-3.17,4-2.92,6.75C12.9,298.24,13.15,295.25,14.35,293Zm118.11,31.53c-.44,1.26-1.62,3.35.66,3.21,2.86-.17,6.6,2.62,8.59-1.81a1.79,1.79,0,0,0,.27-2c1.83-11.57-.92-23.1-.27-34.7.5-9,0-9-8.87-8.21-2.32,2.06-.9,4.65-1,7a9.7,9.7,0,0,0-.23,4.9,1.89,1.89,0,0,0-.11,2.09,111.19,111.19,0,0,0-.07,21v2c-.3,2.2-1,4.46.79,6.41ZM53.64,307.75a6.89,6.89,0,0,0-4.35.09l-13.06.1a5.89,5.89,0,0,0-3.95.06l-5,.07H25.32l-10,0h-1c-2.46.47-4.64-.06-6.78-2.85-.26,3.32-.36,5.6-.63,7.87-.44,3.73.7,5.42,4.85,5.05,6.41-.56,12.85-.7,19.29-.85,13-.3,26.07,1,39.09-.24,7.13.61,7.13.61,6.94-6.15a18.54,18.54,0,0,0-.22-2c.49-2.47-1-2.81-2.88-2.64-2.62.23-5.24.44-7.87.65l-3,.08-7,.28A2.76,2.76,0,0,0,53.64,307.75Zm113.83-74.57-7.36-19.35c-.27-2-.69-4-3.12-5.7.4,8,.84,15.3.58,22.61s-.17,14.93-.38,22.39c-.4,14.6,2.61,29.1,1.14,43.71-.27,2.76.66,4,3.49,4,7.61.21,15.21.58,22.82.88l4.55.57c7.48,1.19,14.9-.17,22.34-.52a19,19,0,0,0,6.92-.5c-2.48-6.5-6.81-11.23-11.13-15.81-12.89-13.66-26.18-27-35.73-43.37Q169.52,237.66,167.47,233.18Zm5.42,96.25,9.6.1c2.79.87,5.54,0,8.31-.21,1.54-.13,3-.56,3-2.53,0-2.18-1.73-2.08-3.19-2.09-2.3,0-4.61.08-6.91.13-3.92-1.29-7.87-.6-11.82-.22-1.77-.43-3.76-1.12-4.43,1.41-.52,1.94.62,3.08,2.54,3.49A3.8,3.8,0,0,0,172.89,329.43ZM55,329.72c3.11,0,6.22.16,9.33.13,1.52,0,3.64.54,3.52-2.1-.11-2.42-1.57-3.4-4-3.19-2.93.26-5.88.39-8.82.57-3.59-.09-7.19-.21-10.78-.27-1.63,0-3.28-.22-3.26,2.38,0,2.38,1,3.26,3.22,3.11C47.81,330.12,51.4,329.93,55,329.72Zm5.18-112.54c1.31-1.94,2.69-4.67,1.68-6.29-1.15-1.87-4.15-.54-6.34-.39-1.46.09-2.89.43-4.34.65-3.15,0-6.3.16-9.43,0-2.56-.13-3.47.73-3.45,3.38.06,10.79-.09,21.58-.12,32.37a13.14,13.14,0,0,0,1.37,6.3c3-4.37,6.93-7.37,8.74-12,3.23-3.8,4.42-8.73,7.1-12.84A29.41,29.41,0,0,0,60.18,217.18Zm-11,178.53,11.93,0c2.94.22,5.9.34,8.83.71,2.26.28,2.77-.63,2.84-2.74.14-3.85-.5-6.33-5.31-5.83-4.06.42-8.2.09-12.3.09l-4.08.19a48.67,48.67,0,0,1-7-.28c-4.85-.84-4.95,2.12-5.06,5.58-.14,4.51,3,2.93,5.18,2.95A33.12,33.12,0,0,0,49.16,395.71Zm127.28-7.23c-3.26,0-6.53,0-9.78-.14-3-.13-3.39,1.54-3.4,4,0,2.74,1,3.9,3.73,3.53s5.82-.67,8.73-1c2,.75,3.94.31,5.91,0,4.08,1.48,8.2-.07,12.28.14s3.46-2.62,3.75-5c.41-3.37-2.24-2.13-3.65-2.17-2.78-.08-5.62-.58-8.38.31C182.57,388.25,179.47,387,176.44,388.48Zm7.26-181.36,3.84-.1c1.64.07,3.31,0,4.93.23,4.07.57,5.52-.94,5.25-5.17-.38-6.12-.1-12.28-.15-18.42-.08-10.78-.1-10.78-10.46-11.34l-1.48-.09c-1.32-.78-2.64-.24-3.95,0-3.81-.05-7.61-.07-11.41-.15-1.93,0-2.51.91-2.58,2.75a94,94,0,0,0,4.07,30.77c.77,2.56,2,2.58,3.92,1.45Zm29.66,101.12a78.07,78.07,0,0,1-8.93-.17c-4.8-.63-10.15,2.38-14.46-2.26-.63-.67-1.08,1.23-1.43,2.07-2.63.09-5.27.25-7.9.26-6.44,0-12.88.06-19.31-.05-3.57-.06-3.17,2.39-3.46,4.7-.33,2.57.91,3.14,3.09,3.2,8.58.2,17.12,1.36,25.72.89l30.93.31a9.19,9.19,0,0,0,2.42.45c2.75-.27,6.48,1.94,7.15-3.42s-2.64-6-6.45-6.29C218.29,307.76,215.78,307.29,213.36,308.24ZM81.19,93.4a5.42,5.42,0,0,0-.48,4.06L80,101.34a3.34,3.34,0,0,0-.51,3.1c-.14,1.3-.29,2.6-.44,3.9a3,3,0,0,0-.3,3.07l-.24,3.85a15.63,15.63,0,0,0,.8,9.92c.76-3.17,1.53-6.35,2.29-9.52s2.49-5.86,2.6-9.11c2.82-.77,3.52-3.44,4.55-5.56,3.45-7.08,8.73-12.35,14.95-17,7.47-5.62,15.24-5.61,23.49-2.45,6,2.3,10.93,6.17,15.56,10.49,1,.94,2.07,1.62,3.54.73a2.93,2.93,0,0,0,1.35-3.84c-.92-2.66-2-5.28-2.83-8-.32-1-1.23-2.37.16-3.14s3.2-1,2.44-3-2.9-1.28-4.42-1.25c-14.26.26-28.52.33-42.77-.17-3.14-.12-6.29.15-9.43.24C83.32,72,83.32,72,82.6,79.8c0,.49,0,1,0,1.48ZM69.61,350.92c.67-3.32-.69-6.47-.77-9.74a5.78,5.78,0,0,0-6.91-5.65c-1.74.29-3.45.77-5.18,1.17-1.3-.17-2.61-.39-3.92-.51-12.19-1.17-12.19-1.17-12.64,11,0,.82,0,1.66-.1,2.48-.36,2.49.44,3.59,3.17,3.43,4.61-.26,9.24-.19,13.86-.27,3.44,0,6.89.08,10.33.07C68.7,352.91,70.37,353.18,69.61,350.92ZM63.46,79.2c.16-1.28-1-1.86-1.46-2.83l-.76-1.21c-.1-1.94-1.36-3-2.89-3.9-3.52-4.35-4.88-4.38-8.62-.77C45,75,42.92,80.85,41.29,86.94,38.6,97,39.21,107.31,39.1,117.56c-.1,9.91-.09,9.91,10,9.66l7.93-.25c1.48.06,3,.17,4.46.17,8.08,0,8.08,0,8-8.14-.14-12.19-.14-12.19-12.47-11.31-.87-.43-1.32-1-.66-2l7.74-.92c2,0,5.33,1.91,5.12-2.06C68.81,94.58,68.25,86.33,63.46,79.2ZM188.37,240.27c0,1,.29,1.67,1.49,1.32l-.26,0,0,.27c.73,4.75,4,7.82,7.23,11.22,1.34-7.08,1-14,.77-21,.1-4,.38-7.92.26-11.87-.37-11.41,2.19-10.17-10.25-9.78H173.86c2.23,6.07,3.6,12.22,6.9,17.63.1,1.4.25,2.77,1.75,3.46a18.57,18.57,0,0,0,5.64,8.93Zm-9.69,95.63c-1.75-.24-3.47,0-5.3-.54-5.92-1.61-7.24-.47-7.49,5.6-.14,3.14-.28,6.27-.39,9.4-.06,1.53-.21,3,2.19,2.83,4.91-.36,9.85-.51,14.77-.75,3.44,0,6.88-.05,10.32,0,2.24,0,3.11-1,3.35-3.25,1.26-12.14-.78-14.36-12.74-13.52a13.07,13.07,0,0,0-1.91.42A2.69,2.69,0,0,0,178.68,335.9Zm3.06-167.76a6.68,6.68,0,0,0,4.82,0c1.81.12,3.64.12,5.43.39,4.28.62,5.79-.92,5.57-5.42-.37-7.61-.08-15.26,0-22.9,0-8.52.06-8.51-8.59-8.49-1.16,0-2.31-.09-3.47-.14a28.63,28.63,0,0,0-9.76.74,22.07,22.07,0,0,1-2.45-.18c-4.81-.79-6.17,1.27-5.86,6,.46,7.07.25,14.18.32,21.28.08,9,.08,9,8.93,8.68Zm-2.1,190.92-11.34-.14c-2.59,0-4,1.23-4.15,3.83-.35,5.11-.67,10.21-1.09,15.31-.18,2.14.62,3,2.76,2.95,3.94-.14,7.89-.2,11.83-.29l3,.08c5.22,1.13,11.13,1.86,15.46-.34,3-1.55.17-7.32,0-11.17-.35-9.9-.57-9.89-10.59-10.11-1.65,0-3.3-.1-5-.15ZM54.86,381c2.4,1.09,4.91.42,7.36.36,10.34-.22,10.34-.25,8.69-10.67-1.73-11-1.73-11-12.95-10.33-4.44-.44-8.87-1-13.31-1.29-2.77-.19-4.34,1.29-4.53,4.13-.25,3.81-.6,7.62-.75,11.43-.26,6.51-.21,6.55,6.07,6.58C48.58,381.18,51.72,381,54.86,381ZM50.24,168.38a11.06,11.06,0,0,0,6.09.06c3.28-.32,6.57-.75,9.86-.91,2.29-.11,3.1-.92,3-3.33-.11-6.79.08-13.58.11-20.38.05-11.91,0-11.91-12.31-11.27a13.9,13.9,0,0,0-5.92,0c-2.63,0-5.27.11-7.88-.11-3.59-.3-4.38,1.38-4.28,4.66.2,6.76,0,13.53,0,20.29C38.87,168.67,38.86,168.67,50.24,168.38Zm4.9,3.9-4,.32c-3-.47-5.94.28-8.89.28s-3.89,1.05-3.77,4.1c.27,6.79.09,13.59.08,20.39,0,11.15,0,11.15,11.53,9.95l6.08-.14c3.64-.15,8.41,3.09,9.79-3.63,1.9-9.32,2.31-18.78,3.08-28.22.21-2.58-.79-3.6-3.44-3.39C62.11,172.21,58.62,172.18,55.14,172.28Zm49.4,138.64c-.1-8.14-.68-16.31-.13-24.4.38-5.56-1.72-6.12-6.37-5.93-4.33.18-6.07,1.31-6,5.94.3,11.46.14,22.93.17,34.4-.32,8.63-.32,8.63,8.23,8a4,4,0,0,1,.49,0c3,.2,4-1.22,3.85-4.16C104.58,320.12,104.62,315.52,104.54,310.92Zm91.63-194.45c1.77-6,1.21-12.16.93-18.22-.47-9.87-2.56-19.36-9.67-26.94-2.92-2.3-5.9-5.57-9.53-1.35-3.36,3.9-6.8,8.1-7.85,13.19-1.45,7.07-3.28,14.11-2.5,21.6.64,6.06-.07,12.26,0,18.4,0,1.46-.59,3.92,1.86,3.86,5.07-.12,10.21,1,15.19-.77l3.07.06c2.44,0,4.89.14,7.33.12,1.16,0,1.89-.52,1.2-1.85a5,5,0,0,0,0-3.54,5.59,5.59,0,0,0,0-4.43ZM78.08,211.15c.09-.72.5-1.74-.66-1.74-.89,0-1.08,1-1.07,1.81-.76,2.18-1.6,4.34-2.25,6.55a109.45,109.45,0,0,1-21.29,40.49c-9.51,11.3-20.11,21.49-30.23,32.18-2.58,2.73-5.26,5.5-5.47,9.63,0,.84.5,1,1.2.85l3,.1a158.38,158.38,0,0,0,31.77.56c7.09-.1,14.18-.26,21.28-.28,2.49,0,3.09-1.26,3-3.43-.19-4.62-.28-9.25-.42-13.88,1.83-9.37,3.29-18.73,2.5-28.39-.79-9.5.41-19.09-.76-28.6A66.22,66.22,0,0,0,78.08,211.15ZM95,67a2.6,2.6,0,0,0,.85.48c14.07,1.68,28.14.82,42.22.13,2.5-.12,2.36-1.45,2.26-3.32-.53-9.38-2.51-18.38-6.92-26.72A10.86,10.86,0,0,1,132,30a80.31,80.31,0,0,1,4.27,7.66c.56,1,.95,3,2.7,2,1.4-.78.73-2.45.1-3.59-3.37-6.09-6.64-12.26-10.35-18.15-1.9-3-4-6.12-7.64-7.52-1.94-2.76-3.91-6.13-7.43-1.9-4.41,5.31-9.23,10.29-12.79,16.29C95,34.63,91.25,45.32,87.88,56.17,84.65,66.59,84.62,66.58,95,67Zm14.79,232.72c0,13.64,0,27.28.07,40.92,0,1.62-1.1,4.41,2.31,4.43,3,0,3.86-1.67,4-4.47,1.17-27.27.41-54.56,1.1-81.83,0-2.08-.34-4.71-2.72-4.3-1.82.31-5.13,0-4.84,4.36C110.6,272.41,109.78,286.06,109.77,299.69Zm-19.1,1.8c0-6-.15-12,0-17.94.14-4.23-2.93-2.14-4.5-2.32s-4.35-1.52-4.08,2.25c1,13.95.25,27.91.14,41.86,0,3.41,1.6,3.6,4.3,3.67,2.92.07,3.2-1.13,3.59-3.72C91.34,317.33,90.22,309.42,90.67,301.49Zm53.46,2.88H144c0,7,.15,13.92-.07,20.87-.09,2.79.94,3.43,3.41,3.34,2.23-.08,3.77-.29,3.63-3.24-.67-13.9-1-27.81.3-41.7.28-3.2-1.84-2.85-3.85-2.94-2.37-.11-3.51.4-3.38,3.3C144.33,290.78,144.13,297.58,144.13,304.37ZM121,300h0c0,12.29-.06,24.57,0,36.86,0,2.16-1.1,6,1.38,6.1,2.73.14,1.78-3.79,1.86-5.78,1-26.05-.86-52.1-.34-78.16,0-1,.33-2.86-1.09-2.92-1.73-.06-1.48,1.88-1.66,3.07a31.79,31.79,0,0,0-.22,4.48Q121,281.78,121,300ZM99.77,336.09c-1.74.73-5-1.14-4.89,3,.05,2,.8,3,3,2.81,3-.26,5.3-1.87,5.54-4.65C103.57,335.2,101.08,336.54,99.77,336.09Zm35.52.91c-1.09.31-3-.7-3,1.33,0,2.33,2.13,2.05,3.64,2.28s2.89-.32,2.83-1.89C138.62,336.6,136.6,337.32,135.29,337Z"/><path class="cls-2" d="M147.55,35.65c-.28-.74-.56-1.47-.85-2.21"/><path class="cls-3" d="M92,273.77c-8.93-.61-9.06-.61-8.9-9.55.21-12,.64-24.07,1-36.11,1-.8,1.2-1.56-.09-2.27-2.26-8.29-1.38-16.79-1.16-25.16.35-13.42.46-26.81,0-40.21,0-2.63,0-5.25.08-7.87a4.44,4.44,0,0,0-1.7-4.3c2.66-16.57,5.29-33.22,16.07-46.9,5.26-6.69,10.13-14.52,20.58-13.49,1.83,1.29,1.9,2.6.05,3.94-3.92.62-8.67-1-11,4.22,3.47,1.85,7.33,1,11,1.62,0,2.56,0,5.11,0,7.67a1.27,1.27,0,0,0-.26.62c-3.06.22-6.19.24-8.71,2.42-1,1.06-3.74.21-3.12,2.95l.18,0c-.53-1.81-1.55-.61-2.17-.22a29.14,29.14,0,0,0-9.44,8.61c-9.59,9.78-9.35,22.57-6.66,33.79,4.37,18.2,25.66,25.57,41,19.62,2-.78,4-1.5,6-2.26.25,3.17-.57,6.22-1.05,9.3-4.86-3.19-4.91-3.21-6.89,2.94-.4,1.26-1,1.95-2.27,2,1.91-5.08-2.67-5.94-5.24-8.1s-4.71,0-6.6,1.1c-1.73,1-3.61,2.78-2.83,5.29.73,2.32,3,2.93,5.09,3.35,1.29.26,2.61.34,3.92.49-1.41,4.52-1,9.19-1,13.8a301.88,301.88,0,0,1-1.68,34.15c-.27,2.45-1,3.21-3.67,3.11-7.2-.28-10.15,2.55-11.78,9.77-1.29,5.69-1.11,11.54-1.41,17.24S98,274,92,273.77Z"/><path class="cls-4" d="M96.82,416.68c-1.34-3.8.25-7.53.45-11.27a242,242,0,0,1,2.51-27.32c1-6.13,1.54-12.47,4.81-18.26,1.3-2.3,3.93-3.4,4.43-6.07,2.28-1,4,.91,6,1.17,4.15.51,8-.5,11.84-2,3.15,5.4,7.79,9.78,5.85,17.57a22.61,22.61,0,0,0,.42,12.37c1.2,3.23.66,6.68,0,9.38-1.07,4.24.27,8,.15,12,0,.8.7,1.75.45,2.39-1.33,3.38-.73,5.76,2.34,8.11,1.41,1.09,3.79,4.51-1.24,5-.18-.83.32-2-1-2.31-.16,0-.58.29-.62.5-.28,1.3.69,1.54,1.62,1.78,2.49,5.51,1.58,12.13.15,16.66-1.81,5.78.31,12.28-3.73,17.42-1,1.27-.26,3.2.05,4.85,2.16,11.49-1.19,20.77-11.1,27.36-.27.18-.59.61-.79.55-4.51-1.19-7.66.82-11,3.71-1.43,1.24-3.46-.67-3.44-2.88a13.18,13.18,0,0,0-2.5-8.32,5.73,5.73,0,0,1-.35-4.78c1.55-3.63.67-7-.6-10.22-1.46-3.65-.5-7.33-.27-10.77.39-5.89-1.35-11.84-.11-17.41,1-4.56-2-8.3-.74-12.78C101.14,420.9,96.88,419.59,96.82,416.68Zm9.21-18.3a33.27,33.27,0,0,0,1.2,8.67c.68,2.76.83,5.41,3.83,6.1s5.81-1.08,7.4-3.17c4.6-6.05,10.69-11.44,11.27-19.71.4-5.7.81-11.52.1-17.15-.65-5.19-.48-11.2-7.41-13.63a11.4,11.4,0,0,0-10.23.8c-3.26,1.95-5.29,5.13-4.71,9.13a45.39,45.39,0,0,1,0,5.83C107.67,383,106.09,390.66,106,398.38Zm-5.36,19.56a.86.86,0,0,0-.11-.33s-.19,0-.3.07,0,.25.12.32S100.57,418,100.67,417.94Z"/><path class="cls-5" d="M133.72,180.14c.48-3.08,1.3-6.13,1.05-9.3l0,.24,2.05,0c0,2.71,1.68,3.21,3.92,3.13a28.88,28.88,0,0,1,10.21,1c.64,22-1.08,44-.89,66.07.07,8.41.46,16.84-.09,25.21-.45,7.06-1,7-8.15,6.41-2.53-4.94-8.41-6.81-10.84-11.84l-.09-2c2.27-4.72,2.11-10,2.44-14.9C134.72,222.87,133.49,201.49,133.72,180.14Z"/><path class="cls-4" d="M78.69,227c1.17,9.51,0,19.1.76,28.6.79,9.66-.67,19-2.5,28.39-4.84,2.82-11.08,2.82-14.75,8.24-1.71,2.52-4.12,5.14-7.57,6-1.62.42-1.39,2-1.55,3.32A158.38,158.38,0,0,1,21.31,301c.93-2.79,3.2-4.55,5.14-6.52Q39.14,281.62,52,268.86c4.32-4.31,7.21-9.89,12.11-13.68L65.14,254l-.08,0c3.06-.43,3.1-2.69,3-5l0,.06,1-2.06-.06,0c2.88-.69,3.83-2.23,2.12-4.91,1.44-5.41,6.8-8.95,7.13-14.9C78.29,227.17,78.55,227.09,78.69,227Z"/><path class="cls-5" d="M121,10.4c3.63,1.4,5.74,4.52,7.64,7.52,3.71,5.89,7,12.06,10.35,18.15.63,1.14,1.3,2.81-.1,3.59-1.75,1-2.14-1-2.7-2A80.31,80.31,0,0,0,132,30a10.86,10.86,0,0,0,1.44,7.59c4.41,8.34,6.39,17.34,6.92,26.72.1,1.87.24,3.2-2.26,3.32-14.08.69-28.15,1.55-42.22-.13A2.6,2.6,0,0,1,95,67c-.13-1.94-.2-3.87,1.09-5.54,5.71,1.07,9.59-1,11.77-6.19,2-4.79-.59-11.9-4.62-12.71C106.93,30.59,114.66,20.87,121,10.4Z"/><path class="cls-4" d="M197.71,434.73c-2.67,4.17-.44,8.69-.94,13-4.35,1.38-8.72,2.72-13.06,4.17-1.79.6-3.74,1.45-2.28,3.87,2.15,3.56.09,4-2.71,3.94-3.54-.09-4.64,1-2.61,4.38,1,1.7.91,3.81-.44,6.7-2.39-4.37-3.18-9.78-8.91-10.11v-3.92c2.17-.73,4.16-1.53,1.57-4.09a17.07,17.07,0,0,1-.69-6.36c.31-14.94-1.89-29.88-.16-44.83,3.66-1.29,7.47-.64,11.21-.68,4.94-.05,9.89.28,14.84.44-.19,8,2.39,15.74,2.14,23.78-.07,2.23-1.7,5.45,2.05,6.72C197.71,432.74,197.71,433.74,197.71,434.73Z"/><path class="cls-4" d="M63.16,416.76C62.7,425,65.45,433,64.83,441.1A43.75,43.75,0,0,1,61,455.53c-1.86,4.14-4.4,8-5.35,12.5a6.63,6.63,0,0,1-.56,1.29c-2.84-1.85-4.58.05-6.63,1.71-4,3.18-5.67-1.63-6.84-3.17-2.19-2.88-3.42-1.28-5.18-.29-.38-2.53.46-5.16-.62-7.63,0-.66.07-1.32.1-2,2.15-3.9,2.9-7.94,1.29-12.24l2-25.91c.55-.34,1.56-.67,1.57-1,0-4.87,2.78-5.23,7-5.53,10.4-.75,12-2.94,10.38-11.24l8.1.06c-3.69,2.83-2.6,6.22-1.14,9.66-4.62.24.64,3-1,4l.08,0Z"/><path class="cls-6" d="M184.64,301.76c-7.61-.3-15.21-.67-22.82-.88-2.83-.08-3.76-1.28-3.49-4,1.47-14.61-1.54-29.11-1.14-43.71.21-7.46.12-14.93.38-22.39s-.18-14.59-.58-22.61c2.43,1.7,2.85,3.66,3.12,5.7-1.35,6.89.29,13.23,3.46,19.3,1.13,4,2.59,7.79,5.41,10.93,3.81,8,8.53,15.47,11.77,23.71a21.84,21.84,0,0,0,.34,3.9C183.76,281.53,187.48,291.25,184.64,301.76Z"/><path class="cls-4" d="M133.72,180.14c-.23,21.35,1,42.73-.43,64.05-.33,4.92-.17,10.18-2.44,14.9-1.48-14.91-.91-12.07-13.68-12-12.08.1-12.1.15-12.6,12.2-.13,3.15-.3,6.3-.15,9.44.19,3.7-1.09,5.59-5,5.38-2.46-.13-5,.31-7.38-.38,6,.21,7.07-2.8,7.37-8.46s.12-11.55,1.41-17.24c1.63-7.22,4.58-10,11.78-9.77,2.66.1,3.4-.66,3.67-3.11A301.88,301.88,0,0,0,117.92,201c0-4.61-.43-9.28,1-13.8l5.66-2.13c1.3-.08,1.87-.77,2.27-2C128.81,176.93,128.86,177,133.72,180.14Z"/><path class="cls-3" d="M184.57,126.24c-5,1.77-10.12.65-15.19.77-2.45.06-1.85-2.4-1.86-3.86,0-6.14.67-12.34,0-18.4-.78-7.49,1-14.53,2.5-21.6,1-5.09,4.49-9.29,7.85-13.19,3.63-4.22,6.61-.95,9.53,1.35-4.63.47-3.32,4.33-4,7.06A9.9,9.9,0,0,0,181.83,84c-.1,6.14.25,12.3-.16,18.42a9.2,9.2,0,0,0,2.29,7A97.22,97.22,0,0,0,184.57,126.24Z"/><path class="cls-5" d="M90.83,73.64c3.14-.09,6.29-.36,9.43-.24,14.25.5,28.51.43,42.77.17,1.52,0,3.65-.76,4.42,1.25s-1.14,2.25-2.44,3-.48,2.15-.16,3.14c.84,2.69,1.91,5.31,2.83,8a2.93,2.93,0,0,1-1.35,3.84c-1.47.89-2.52.21-3.54-.73-4.63-4.32-9.57-8.19-15.56-10.49-8.25-3.16-16-3.17-23.49,2.45-6.22,4.67-11.5,9.94-14.95,17-1,2.12-1.73,4.79-4.55,5.56,0-1-.42-2.15,0-2.88,3-5.44,2.69-11.54,3.6-17.4C87.32,81.7,89,77.66,90.83,73.64Z"/><path class="cls-3" d="M180.75,267.77c-3.24-8.24-8-15.75-11.77-23.71l2.61-1.93c9.55,16.41,22.84,29.71,35.73,43.37,4.32,4.58,8.65,9.31,11.13,15.81a19,19,0,0,1-6.92.5c-2.55-.84-5.72-3.07-7.52-2.25-4.83,2.19-9.6,1.11-14.39,1.45-.3-1.61-.63-3.22-.89-4.84C187.15,286.39,185.57,276.63,180.75,267.77ZM206,287.38a22.56,22.56,0,0,0-1.79-2.09c-3.41-3.13-6.68-6.46-10.37-9.22-2.29-1.72-5.71-5.67-7.51-3.6-2.33,2.68,1.16,6.2,3.2,9,3.64,5.06,10.3,3.91,14.73,7.35C204.87,289.28,205.88,288.72,206,287.38Z"/><path class="cls-3" d="M64.07,255.18c-4.9,3.79-7.79,9.37-12.11,13.68q-12.8,12.78-25.51,25.64c-1.94,2-4.21,3.73-5.14,6.52l-3-.1-1.2-.85c.21-4.13,2.89-6.9,5.47-9.63,10.12-10.69,20.72-20.88,30.23-32.18A109.45,109.45,0,0,0,74.1,217.77c.65-2.21,1.49-4.37,2.25-6.55l1.73-.07A66.22,66.22,0,0,1,78.69,227c-.14.09-.4.17-.4.27-.33,5.95-5.69,9.49-7.13,14.9-.71,1.64-1.41,3.28-2.12,4.91l.06,0a2.25,2.25,0,0,0-1,2.06l0-.06c-1.87,1.16-2.43,3.11-3,5l.08,0Z"/><path class="cls-3" d="M109.77,299.69c0-13.63.83-27.28-.1-40.89-.29-4.33,3-4.05,4.84-4.36,2.38-.41,2.77,2.22,2.72,4.3-.69,27.27.07,54.56-1.1,81.83-.12,2.8-1,4.49-4,4.47-3.41,0-2.3-2.81-2.31-4.43C109.72,327,109.77,313.33,109.77,299.69Z"/><path class="cls-3" d="M121,10.4c-6.37,10.47-14.1,20.19-17.81,32.13a93.75,93.75,0,0,0-7.15,18.9C94.78,63.1,94.85,65,95,67c-10.36-.39-10.33-.38-7.1-10.8C91.25,45.32,95,34.63,100.81,24.79c3.56-6,8.38-11,12.79-16.29C117.12,4.27,119.09,7.64,121,10.4Z"/><path class="cls-3" d="M49.14,127.22c-10.13.25-10.14.25-10-9.66.11-10.25-.5-20.55,2.19-30.62C42.92,80.85,45,75,49.73,70.49c3.74-3.61,5.1-3.58,8.62.77l-3.58,7c-3,5.1-3.88,10.69-4.69,16.47C48.55,105.57,49.74,116.41,49.14,127.22Z"/><path class="cls-5" d="M183.41,78.37c.7-2.73-.61-6.59,4-7.06,7.11,7.58,9.2,17.07,9.67,26.94.28,6.06.84,12.23-.93,18.22l-.69-1.78a6.33,6.33,0,0,0-.53.49c.38.49.79.95,1.19,1.42a5.59,5.59,0,0,1,0,4.43c-1.64,1.2-1.67,2.38,0,3.54.69,1.33,0,1.84-1.2,1.85-2.44,0-4.89-.07-7.33-.12-1.84-5.61-.57-11.43-1.13-17.12l-.87-25.61C185.57,81.54,185.29,79.61,183.41,78.37Z"/><path class="cls-2" d="M15.33,308.11l10,0c.65.83,1.29.82,1.93,0l5-.07a2.58,2.58,0,0,0,3.95-.06l13.06-.1c-.69,1.54-2.69.67-3.73,2,6-.13,11.76,2.15,17.58.13,2.65,2.06,7.13,2.31,7,7.12-13,1.25-26.06-.06-39.09.24-6.44.15-12.88.29-19.29.85-4.15.37-5.29-1.32-4.85-5.05.27-2.27.37-4.55.63-7.87,2.14,2.79,4.32,3.32,6.78,2.85C14.66,308.53,15,308.52,15.33,308.11Zm23.75,3.59H10.36a2.21,2.21,0,0,0,1.9,1.24A163.7,163.7,0,0,0,39.08,311.7Z"/><path class="cls-3" d="M92.26,320.93c0-11.47.13-22.94-.17-34.4-.12-4.63,1.62-5.76,6-5.94,4.65-.19,6.75.37,6.37,5.93-.55,8.09,0,16.26.13,24.4-2.66.91-2.51,3.2-2.4,5.29.2,3.66-1.55,5.05-5,4.84C95.52,321,93.89,321,92.26,320.93Z"/><path class="cls-5" d="M57,132.55c12.35-.64,12.36-.64,12.31,11.27,0,6.8-.22,13.59-.11,20.38.05,2.41-.76,3.22-3,3.33-3.29.16-6.58.59-9.86.91-1.74-3.48.87-6.61.77-10C56.86,149.8,57,141.17,57,132.55Z"/><path class="cls-3" d="M50.07,207.32c-11.57,1.2-11.56,1.2-11.54-9.95,0-6.8.19-13.6-.08-20.39-.12-3,.76-4.09,3.77-4.1s5.9-.75,8.89-.28Q50.58,190,50.07,207.32Z"/><path class="cls-6" d="M132.84,281c8.89-.79,9.37-.76,8.87,8.21-.65,11.6,2.1,23.13.27,34.7-6.13-4.23-6.13-4.23-9.75.48-1.78-1.95-1.09-4.21-.79-6.41,1.46-.68,1.43-1.35,0-2a111.19,111.19,0,0,1,.07-21c1.29-.63,1.23-1.33.11-2.09a9.7,9.7,0,0,1,.23-4.9C137,286.37,134.26,283.59,132.84,281Z"/><path class="cls-5" d="M55.14,172.28c3.48-.1,7-.07,10.43-.34,2.65-.21,3.65.81,3.44,3.39-.77,9.44-1.18,18.9-3.08,28.22-1.38,6.72-6.15,3.48-9.79,3.63Q55.65,189.74,55.14,172.28Z"/><path class="cls-5" d="M185.46,131.59c1.16,0,2.31.14,3.47.14,8.65,0,8.64,0,8.59,8.49,0,7.64-.33,15.29,0,22.9.22,4.5-1.29,6-5.57,5.42-1.79-.27-3.62-.27-5.43-.39-.11-7.14-.58-14.3-.22-21.42C186.61,141.6,184.16,136.71,185.46,131.59Z"/><path class="cls-3" d="M48.29,241.26c-1.81,4.58-5.74,7.58-8.74,12a13.14,13.14,0,0,1-1.37-6.3c0-10.79.18-21.58.12-32.37,0-2.65.89-3.51,3.45-3.38,3.13.15,6.28,0,9.43,0,.07,1.35.15,2.71.22,4.06-2,3.12-.82,6.62-1.21,9.94A74,74,0,0,0,48.29,241.26Z"/><path class="cls-3" d="M50.24,168.38c-11.38.29-11.37.29-11.28-10.94,0-6.76.2-13.53,0-20.29-.1-3.28.69-5,4.28-4.66,2.61.22,5.25.09,7.88.11C50,144.51,50.25,156.44,50.24,168.38Z"/><path class="cls-5" d="M185.63,172.23l1.48.09c10.36.56,10.38.56,10.46,11.34.05,6.14-.23,12.3.15,18.42.27,4.23-1.18,5.74-5.25,5.17-1.62-.22-3.29-.16-4.93-.23C185.36,195.51,187.45,183.76,185.63,172.23Z"/><path class="cls-3" d="M90.67,301.49c-.45,7.93.67,15.84-.5,23.8-.39,2.59-.67,3.79-3.59,3.72-2.7-.07-4.32-.26-4.3-3.67.11-13.95.84-27.91-.14-41.86-.27-3.77,2.58-2.42,4.08-2.25s4.64-1.91,4.5,2.32C90.52,289.52,90.67,295.51,90.67,301.49Z"/><path class="cls-6" d="M175.68,207.06c-1.9,1.13-3.15,1.11-3.92-1.45a94,94,0,0,1-4.07-30.77c.07-1.84.65-2.79,2.58-2.75,3.8.08,7.6.1,11.41.15q.44,11,.88,21.95c-.63-.16-1.25-.33-1.89-.48-5.31-1.22-6-.48-5.17,4.75C176,201.3,177.08,204.17,175.68,207.06Z"/><path class="cls-4" d="M54.86,381c-3.14.07-6.28.22-9.42.21-6.28,0-6.33-.07-6.07-6.58.15-3.81.5-7.62.75-11.43.19-2.84,1.76-4.32,4.53-4.13,4.44.31,8.87.85,13.31,1.29a7.85,7.85,0,0,0-2,5.84C55.87,371.1,56.65,376.13,54.86,381Z"/><path class="cls-2" d="M176.64,168.09c-8.85.31-8.85.31-8.93-8.68-.07-7.1.14-14.21-.32-21.28-.31-4.71,1.05-6.77,5.86-6a22.07,22.07,0,0,0,2.45.18c1.23,6.43,4.43,12.36,4.8,19a2.87,2.87,0,0,0-2.75,3Z"/><path class="cls-5" d="M180.63,359c1.66.05,3.31.12,5,.15,10,.22,10.24.21,10.59,10.11.14,3.85,3,9.62,0,11.17-4.33,2.2-10.24,1.47-15.46.34C182.5,373.54,181.29,366.29,180.63,359Z"/><path class="cls-2" d="M144.13,304.37c0-6.79.2-13.59-.09-20.37-.13-2.9,1-3.41,3.38-3.3,2,.09,4.13-.26,3.85,2.94-1.26,13.89-1,27.8-.3,41.7.14,3-1.4,3.16-3.63,3.24-2.47.09-3.5-.55-3.41-3.34.22-6.95.07-13.91.07-20.87Z"/><path class="cls-5" d="M54.86,381c1.79-4.83,1-9.86,1.06-14.8a7.85,7.85,0,0,1,2-5.84c11.22-.63,11.22-.63,12.95,10.33,1.65,10.42,1.65,10.45-8.69,10.67C59.77,381.38,57.26,382.05,54.86,381Z"/><path class="cls-2" d="M49.14,127.22c.6-10.81-.59-21.65.94-32.47.81-5.78,1.73-11.37,4.69-16.47,1.84,1.52,1.28,3.64,1.32,5.56.14,7.29.2,14.58.3,21.87-.66,1-.21,1.55.66,2q0,9.65,0,19.28Z"/><path class="cls-6" d="M75.46,441c-1.29,10.88-.4,21.78-.34,32.68A21,21,0,0,1,73,483.82c-2.34-1.09-2.79-3.35-2.65-5.42.58-8.06.3-16.11.35-24.16,0-3.5-1.44-7-2.3-9.95-1.53-5.26,1.21-9.79,0-14.59-.7-2.88-1-5.87-1.44-8.82,2.6-.36,3.16,3.29,5.76,2.92l.36,3c-.67,1.51-3.12,3.36.76,4A40,40,0,0,1,75.46,441Z"/><path class="cls-5" d="M121,300q0-18.18,0-36.35a31.79,31.79,0,0,1,.22-4.48c.18-1.19-.07-3.13,1.66-3.07,1.42.06,1.11,1.89,1.09,2.92-.52,26.06,1.39,52.11.34,78.16-.08,2,.87,5.92-1.86,5.78-2.48-.13-1.36-3.94-1.38-6.1-.11-12.29,0-24.57,0-36.86Z"/><path class="cls-4" d="M177.65,380.72c-3.94.09-7.89.15-11.83.29-2.14.08-2.94-.81-2.76-2.95.42-5.1.74-10.2,1.09-15.31.18-2.6,1.56-3.86,4.15-3.83l11.34.14a2.3,2.3,0,0,1-1.54,1.75c-3.85,1.35-6.59,7.59-3.72,9.79C178.28,373.6,177.57,377.05,177.65,380.72Z"/><path class="cls-5" d="M189.62,241.88l0-.27.26,0-1.49-1.32-.22.22q-.26-15-.52-30c12.44-.39,9.88-1.63,10.25,9.78.12,3.95-.16,7.91-.26,11.87a3.9,3.9,0,0,0-3.59,3.51C193.49,238.47,191.68,240.22,189.62,241.88Z"/><path class="cls-5" d="M181.48,336.06a13.07,13.07,0,0,1,1.91-.42c12-.84,14,1.38,12.74,13.52-.24,2.26-1.11,3.27-3.35,3.25-3.44,0-6.88,0-10.32,0-.12-.43-.25-.87-.37-1.31,1-2.79.2-5.43-.69-8.07C180.61,340.72,179.93,338.38,181.48,336.06Z"/><path class="cls-5" d="M186.68,316.88c-8.6.47-17.14-.69-25.72-.89-2.18-.06-3.42-.63-3.09-3.2.29-2.31-.11-4.76,3.46-4.7,6.43.11,12.87.08,19.31.05,2.63,0,5.27-.17,7.9-.26l.28,3.09C187.27,312.63,187.33,314.89,186.68,316.88Z"/><path class="cls-2" d="M53.08,301.58c.16-1.28-.07-2.9,1.55-3.32,3.45-.89,5.86-3.51,7.57-6,3.67-5.42,9.91-5.42,14.75-8.24.14,4.63.23,9.26.42,13.88.08,2.17-.52,3.43-3,3.43C67.26,301.32,60.17,301.48,53.08,301.58Z"/><path class="cls-3" d="M180.5,151.34c-.37-6.65-3.57-12.58-4.8-19a28.63,28.63,0,0,1,9.76-.74c-1.3,5.12,1.15,10,.88,15.14-.36,7.12.11,14.28.22,21.42a6.68,6.68,0,0,1-4.82,0Q181.13,159.74,180.5,151.34Z"/><path class="cls-4" d="M182.09,351.13c.12.44.25.88.37,1.31-4.92.24-9.86.39-14.77.75-2.4.17-2.25-1.3-2.19-2.83.11-3.13.25-6.26.39-9.4.25-6.07,1.57-7.21,7.49-5.6,1.83.49,3.55.3,5.3.54A28.81,28.81,0,0,0,182.09,351.13Z"/><path class="cls-5" d="M57.07,127q0-9.63,0-19.28c12.33-.88,12.33-.88,12.47,11.31.09,8.13.09,8.14-8,8.14C60,127.14,58.55,127,57.07,127Z"/><path class="cls-6" d="M187.63,210.47q.27,15,.52,30a18.57,18.57,0,0,1-5.64-8.93c.15-1.53.17-3-1.75-3.46-3.3-5.41-4.67-11.56-6.9-17.63Z"/><path class="cls-4" d="M50.24,168.38c0-11.94-.2-23.87.88-35.78a13.9,13.9,0,0,1,5.92,0c0,8.62-.18,17.25.06,25.87.1,3.41-2.51,6.54-.77,10A11.06,11.06,0,0,1,50.24,168.38Z"/><path class="cls-3" d="M57.12,352.85c-4.62.08-9.25,0-13.86.27-2.73.16-3.53-.94-3.17-3.43.12-.82.06-1.66.1-2.48.45-12.19.45-12.19,12.64-11,1.31.12,2.62.34,3.92.51-.22.38-.45.75-.67,1.12-2.91-.28-4.4.77-4,3.95.25,2,.21,4,.31,6,.94,2.18,2.32,3.82,4.86,4.09Z"/><path class="cls-4" d="M81.17,148.3a4.43,4.43,0,0,1,1.7,4.29,14.61,14.61,0,0,0-.62,7.91,191,191,0,0,1-12.09,52.67l-2.29,0c1.87-12.4,8.08-23.73,8.42-36.58C76.55,167,79,157.62,81.17,148.3Z"/><path class="cls-5" d="M56.39,105.71c-.1-7.29-.16-14.58-.3-21.87,0-1.92.52-4-1.32-5.56l3.58-7c1.53.88,2.79,2,2.89,3.9.25.4.51.8.76,1.21.43,1,1.62,1.55,1.46,2.83-2.55,1.94,1.57,4.25-.4,6.32-2.94,3.09,2,7.86-2.18,10.77.29.35.51.9.87,1,4.32,1.39,2.34,4.75,2.38,7.48Z"/><path class="cls-3" d="M58.13,402c1.63,8.3,0,10.49-10.38,11.24-4.22.3-7,.66-7,5.53,0,.34-1,.67-1.57,1,.13-2.31.23-4.61.39-6.92.75-10.68.76-10.69,11.63-10.9C53.51,402,55.82,402,58.13,402Z"/><path class="cls-4" d="M55.14,172.28q.49,17.44,1,34.9l-6.08.14,1-34.72Z"/><path class="cls-5" d="M56.08,337.82c.22-.37.45-.74.67-1.12,1.73-.4,3.44-.88,5.18-1.17a5.78,5.78,0,0,1,6.91,5.65c.08,3.27,1.44,6.42.77,9.74-5.76.5-11.16.46-11.55-7.45-.05-.88-.93-1.31-1.76-1.56C56.22,340.55,56.15,339.19,56.08,337.82Z"/><path class="cls-4" d="M87.83,86.27c-.91,5.86-.57,12-3.6,17.4-.41.73,0,1.91,0,2.88-.11,3.25-1.78,6.06-2.6,9.11l-3.09-.4.24-3.85c1.18-.91,1.37-1.93.3-3.07.15-1.3.3-2.6.44-3.9,1.51-.81,1.59-1.86.51-3.1.23-1.29.45-2.58.67-3.88,1.57-1.19,1.51-2.57.48-4.06q.68-6.06,1.37-12.12C85.34,81.86,84.87,85.88,87.83,86.27Z"/><path class="cls-6" d="M213.36,308.24c2.42-.95,4.93-.48,7.37-.31,3.81.26,7.13.92,6.45,6.29s-4.4,3.15-7.15,3.42a9.19,9.19,0,0,1-2.42-.45c-3.58-2.41-6-6.33-11.67-5.57-4.19.56-9.11,2.09-13.17-1.3,5.55-.08,11.11-.13,16.67-.28C210.94,310,212.89,310.65,213.36,308.24Z"/><path class="cls-4" d="M182.56,194.19q-.44-11-.88-21.95c1.31-.25,2.63-.79,3.95,0,1.82,11.53-.27,23.28,1.91,34.79l-3.84.1C182.43,202.89,183,198.49,182.56,194.19Z"/><path class="cls-2" d="M192.77,310.32c4.06,3.39,9,1.86,13.17,1.3,5.65-.76,8.09,3.16,11.67,5.57l-30.93-.31c.65-2,.59-4.25,2.14-5.91Z"/><path class="cls-5" d="M55.15,387.9c4.1,0,8.24.33,12.3-.09,4.81-.5,5.45,2,5.31,5.83-.07,2.11-.58,3-2.84,2.74-2.93-.37-5.89-.49-8.83-.71-.31-.8-.72-1.68-1.65-1.61C54.44,394.45,54.07,391.7,55.15,387.9Z"/><path class="cls-4" d="M92.26,320.93c1.63,0,3.26,0,4.88.12,3.45.21,5.2-1.18,5-4.84-.11-2.09-.26-4.38,2.4-5.29.08,4.6,0,9.2.29,13.79.16,2.94-.85,4.36-3.85,4.16a4,4,0,0,0-.49,0C91.94,329.56,91.94,329.56,92.26,320.93Z"/><path class="cls-2" d="M177.65,380.72c-.08-3.67.63-7.12-3.27-10.12-2.87-2.2-.13-8.44,3.72-9.79a2.3,2.3,0,0,0,1.54-1.75l1,0c.66,7.26,1.87,14.51.06,21.77Z"/><path class="cls-2" d="M130.91,95.32c5.23,5.77,11.06,11.08,14.23,18.42.7,1.64,1.16,3.39,1.72,5.09l-1.3.7c-2-2-3.42-4.69-6.24-5.81-1.75-.7-1.83.27-1.47,1.59-2.23.11-4-.5-4.46-3,3.88-.75.64-2.45.49-3.73,3.15-4.66-2.17-6.81-3-10.27L130.11,96Z"/><path class="cls-6" d="M64.13,104.79c0-2.73,1.94-6.09-2.38-7.48-.36-.12-.58-.67-.87-1,4.14-2.91-.76-7.68,2.18-10.77,2-2.07-2.15-4.38.4-6.32,4.79,7.13,5.35,15.38,5.79,23.53C69.46,106.7,66.13,104.76,64.13,104.79Z"/><path class="cls-5" d="M72.73,423.8c-2.6.37-3.16-3.28-5.76-2.92-3-1.2-.17-3.45-.89-5.06,3.78-2.35-.1-2.84-1-4.06-1.46-3.44-2.55-6.83,1.14-9.66,2-.52,3.57.16,3.69,2.15C70.33,410.85,73.21,417.09,72.73,423.8Z"/><path class="cls-5" d="M185.63,388.25c2.76-.89,5.6-.39,8.38-.31,1.41,0,4.06-1.2,3.65,2.17-.29,2.34.26,5.16-3.75,5s-8.2,1.34-12.28-.14C183,392.72,183,389.71,185.63,388.25Z"/><path class="cls-6" d="M189.62,241.88c2.06-1.66,3.87-3.41,4.41-6.25a3.9,3.9,0,0,1,3.59-3.51c.23,6.95.57,13.9-.77,21C193.65,249.7,190.35,246.63,189.62,241.88Z"/><path class="cls-3" d="M175.72,394.89c-2.91.33-5.83.6-8.73,1s-3.75-.79-3.73-3.53c0-2.48.4-4.15,3.4-4,3.25.14,6.52.1,9.78.14C176.34,390.63,175.07,392.65,175.72,394.89Z"/><path class="cls-5" d="M182.56,194.19c.47,4.3-.13,8.7,1.14,12.93l-8-.06c1.4-2.89.29-5.76-.18-8.6-.87-5.23-.14-6,5.17-4.75C181.31,193.86,181.93,194,182.56,194.19Z"/><path class="cls-6" d="M150.91,175.24a28.88,28.88,0,0,0-10.21-1c-2.24.08-3.94-.42-3.92-3.13,0-.36,0-.72,0-1.07l-.13,0c1.53.16,2.24-.47,2-2l.13.24,1-1.26,1.92-1.73c2.7,2.42,6,2,9.25,2.07,0,.64,0,1.28,0,1.92-3.43,1.28-.86,2.67-.08,4Z"/><path class="cls-4" d="M49.16,395.71a33.12,33.12,0,0,1-4.92.63c-2.16,0-5.32,1.56-5.18-2.95.11-3.46.21-6.42,5.06-5.58a48.67,48.67,0,0,0,7,.28A11.26,11.26,0,0,0,49.16,395.71Z"/><path class="cls-5" d="M70.15,317.1c.12-4.81-4.36-5.06-7-7.12,0-1,0-1.94,0-2.91l3-.08c3.33,2.07,7.37.22,10.75,2a18.54,18.54,0,0,1,.22,2C77.28,317.71,77.28,317.71,70.15,317.1Z"/><path class="cls-2" d="M197.72,431.75c-3.75-1.27-2.12-4.49-2.05-6.72.25-8-2.33-15.78-2.14-23.78,2.27-.53,3.53.26,3.57,2.7C197.24,413.22,198.44,422.46,197.72,431.75Z"/><path class="cls-2" d="M50.19,225.15c.39-3.32-.77-6.82,1.21-9.94a18.31,18.31,0,0,0,8.78,2,29.41,29.41,0,0,1-4.79,11.24C54.38,226.19,52.86,224.75,50.19,225.15Z"/><path class="cls-5" d="M180.75,267.77c4.82,8.86,6.4,18.62,8,28.4.26,1.62.59,3.23.89,4.84-.14.44-.28.88-.43,1.32l-4.55-.57c2.84-10.51-.88-20.23-3.55-30.09A21.84,21.84,0,0,1,180.75,267.77Z"/><path class="cls-2" d="M150.92,167.28c-3.22-.06-6.55.35-9.25-2.07a27.94,27.94,0,0,0,8.25-15.9l1.6,1.18.2,2.62C149.69,157.73,151.94,162.6,150.92,167.28Z"/><path class="cls-3" d="M42.39,260.32,23.52,281.93l-.39-3.13,18-19.83Z"/><path class="cls-3" d="M55,329.72c-3.6.21-7.19.4-10.78.63-2.24.15-3.2-.73-3.22-3.11,0-2.6,1.63-2.41,3.26-2.38,3.59.06,7.19.18,10.78.27C55,326.66,55,328.19,55,329.72Z"/><path class="cls-4" d="M182.49,329.53l-9.6-.1c-1.18-1.43-3-2.73-1-4.82,4-.38,7.9-1.07,11.82.22A9.9,9.9,0,0,1,182.49,329.53Z"/><path class="cls-3" d="M87.83,86.27c-3-.39-2.49-4.41-5.27-5,0-.5,0-1,0-1.48.72-7.78.72-7.78,8.23-6.16C89,77.66,87.32,81.7,87.83,86.27Z"/><path class="cls-2" d="M163.57,233.13c-3.17-6.07-4.81-12.41-3.46-19.3l7.36,19.35Z"/><path class="cls-2" d="M130.94,261.09c2.43,5,8.31,6.9,10.84,11.84C130.93,273.18,130.93,273.18,130.94,261.09Z"/><path class="cls-5" d="M55,329.72c0-1.53,0-3.06,0-4.59,2.94-.18,5.89-.31,8.82-.57,2.42-.21,3.88.77,4,3.19.12,2.64-2,2.09-3.52,2.1C61.22,329.88,58.11,329.77,55,329.72Z"/><path class="cls-6" d="M60.18,217.18a18.31,18.31,0,0,1-8.78-2c-.07-1.35-.15-2.71-.22-4.06,1.45-.22,2.88-.56,4.34-.65,2.19-.15,5.19-1.48,6.34.39C62.87,212.51,61.49,215.24,60.18,217.18Z"/><path class="cls-6" d="M180.5,151.34q.62,8.4,1.24,16.8l-5.1,0,1.11-13.79A2.87,2.87,0,0,1,180.5,151.34Z"/><path class="cls-4" d="M50.19,225.15c2.67-.4,4.19,1,5.2,3.27-2.68,4.11-3.87,9-7.1,12.84A74,74,0,0,1,50.19,225.15Z"/><path class="cls-4" d="M42.39,260.32,41.09,259a147.47,147.47,0,0,0,15-19.89l1.45,1.55A93,93,0,0,1,42.39,260.32Z"/><path class="cls-4" d="M192.77,310.32l-4,.65c-.09-1-.19-2.06-.28-3.09.35-.84.8-2.74,1.43-2.07,4.31,4.64,9.66,1.63,14.46,2.26a78.07,78.07,0,0,0,8.93.17c-.47,2.41-2.42,1.76-3.92,1.8C203.88,310.19,198.32,310.24,192.77,310.32Z"/><path class="cls-2" d="M57.55,240.63l-1.45-1.55,9.66-19.87c.4.86.8,1.73,1.19,2.6C64,228.16,62.25,235.15,57.55,240.63Z"/><path class="cls-2" d="M49.16,395.71a11.26,11.26,0,0,1,1.91-7.62l4.08-.19c-1.08,3.8-.71,6.55,4.29,6.16.93-.07,1.34.81,1.65,1.61Z"/><path class="cls-6" d="M56.3,341.91c.83.25,1.71.68,1.76,1.56.39,7.91,5.79,7.95,11.55,7.45.76,2.26-.91,2-2.16,2-3.44,0-6.89,0-10.33-.07,0-.34.09-.67.13-1-.34-2.06-.67-4.12-1-6.18Z"/><path class="cls-6" d="M186.51,109.18c.56,5.69-.71,11.51,1.13,17.12l-3.07-.06a97.22,97.22,0,0,1-.61-16.8Z"/><path class="cls-2" d="M175.72,394.89c-.65-2.24.62-4.26.72-6.41,3-1.44,6.13-.23,9.19-.23-2.61,1.46-2.65,4.47-4,6.68C179.66,395.2,177.68,395.64,175.72,394.89Z"/><path class="cls-2" d="M99.77,336.09c1.31.45,3.8-.89,3.63,1.11-.24,2.78-2.53,4.39-5.54,4.65-2.18.2-2.93-.77-3-2.81C94.78,335,98,336.82,99.77,336.09Z"/><path class="cls-6" d="M63.13,307.07c0,1,0,1.94,0,2.91-5.82,2-11.59-.26-17.58-.13,1-1.34,3-.47,3.73-2a6.89,6.89,0,0,1,4.35-.09c.89.17,1.94,1.38,2.53-.4Z"/><path class="cls-6" d="M182.49,329.53a9.9,9.9,0,0,0,1.24-4.7c2.3-.05,4.61-.14,6.91-.13,1.46,0,3.18-.09,3.19,2.09,0,2-1.49,2.4-3,2.53C188,329.56,185.28,330.4,182.49,329.53Z"/><path class="cls-4" d="M163.57,233.13l3.9.05q2.06,4.48,4.12,8.95L169,244.06C166.16,240.92,164.7,237.11,163.57,233.13Z"/><path class="cls-5" d="M132.23,324.39c3.62-4.71,3.62-4.71,9.75-.48a1.79,1.79,0,0,1-.27,2c-3.15-.06-6.41.71-9.25-1.4Z"/><path class="cls-4" d="M189.19,302.33c.15-.44.29-.88.43-1.32,4.79-.34,9.56.74,14.39-1.45,1.8-.82,5,1.41,7.52,2.25C204.09,302.16,196.67,303.52,189.19,302.33Z"/><path class="cls-2" d="M182.09,351.13a28.81,28.81,0,0,1-3.41-15.23,2.69,2.69,0,0,1,2.8.16c-1.55,2.32-.87,4.66-.08,7C182.29,345.7,183.08,348.34,182.09,351.13Z"/><path class="cls-2" d="M78.55,115.26l3.09.4c-.76,3.17-1.53,6.35-2.29,9.52A15.63,15.63,0,0,1,78.55,115.26Z"/><path class="cls-2" d="M135.29,337c1.31.32,3.33-.4,3.42,1.72.06,1.57-1.4,2.12-2.83,1.89s-3.68.05-3.64-2.28C132.29,336.3,134.2,337.31,135.29,337Z"/><path class="cls-5" d="M37.23,445.73c1.61,4.3.86,8.34-1.29,12.24C34.64,453.71,35.66,449.69,37.23,445.73Z"/><path class="cls-4" d="M117.87,91.85c1.85-1.34,1.78-2.65-.05-3.94a7.57,7.57,0,0,1,6.12,2.37c0,.68,0,1.35-.07,2Z"/><path class="cls-6" d="M151.52,150.49l-1.6-1.18a34.64,34.64,0,0,1,1-9l.8,0c1.6,3,.88,6.09.54,9.19Z"/><path class="cls-6" d="M67,221.81c-.39-.87-.79-1.74-1.19-2.6a14.54,14.54,0,0,1,2.11-6.09l2.29,0A20.2,20.2,0,0,1,67,221.81Z"/><path class="cls-5" d="M151.67,140.32l-.8,0q-1.32-6.9-2.63-13.8l1.25-.17A35.36,35.36,0,0,1,151.67,140.32Z"/><path class="cls-2" d="M132.46,324.56c2.84,2.11,6.1,1.34,9.25,1.4-2,4.43-5.73,1.64-8.59,1.81C130.84,327.91,132,325.82,132.46,324.56Z"/><path class="cls-6" d="M171.91,324.61c-2,2.09-.2,3.39,1,4.82a3.8,3.8,0,0,1-2.87.08c-1.92-.41-3.06-1.55-2.54-3.49C168.15,323.49,170.14,324.18,171.91,324.61Z"/><path class="cls-3" d="M21.68,284.13l-4.8,5.48-1.61-1.26c.83-2.65,2.84-4.39,4.77-6.2Z"/><path class="cls-2" d="M14.35,293c-1.2,2.22-1.45,5.21-4.68,5.77-.25-2.78,1.73-4.6,2.92-6.75.07-.13.27-.18.4-.27Z"/><path class="cls-5" d="M132.84,281c1.42,2.59,4.18,5.37-1,7C131.94,285.65,130.52,283.06,132.84,281Z"/><path class="cls-6" d="M76.87,309c-3.38-1.77-7.42.08-10.75-2,2.63-.21,5.25-.42,7.87-.65C75.92,306.17,77.36,306.51,76.87,309Z"/><path class="cls-2" d="M123.87,92.31c0-.68,0-1.35.07-2a9.46,9.46,0,0,1,6,4l-.67.91Z"/><path class="cls-6" d="M149.49,126.32l-1.25.17q-1.22-3.08-2.45-6.17l1.7-.1A11.87,11.87,0,0,1,149.49,126.32Z"/><path class="cls-4" d="M21.68,284.13l-1.64-2a5.73,5.73,0,0,1,3.09-3.35l.39,3.13A3.3,3.3,0,0,1,21.68,284.13Z"/><path class="cls-5" d="M33.44,446.74c-1.34-.2-2.8-.44-2.65-2.2.11-1.38,1.4-1.63,2.58-1.78C33.39,444.08,33.42,445.41,33.44,446.74Z"/><path class="cls-5" d="M73.85,430.79c-3.88-.65-1.43-2.5-.76-4C74.24,428,74.07,429.36,73.85,430.79Z"/><path class="cls-5" d="M151.52,150.49l.69-1c1.79,1.46,2.43,2.77-.49,3.6C151.65,152.24,151.59,151.37,151.52,150.49Z"/><path class="cls-6" d="M82.25,160.5a14.61,14.61,0,0,1,.62-7.91c0,2.63-.05,5.25-.08,7.88l-.26.17Z"/><path class="cls-2" d="M81.19,93.4c1,1.49,1.09,2.87-.48,4.06A5.42,5.42,0,0,1,81.19,93.4Z"/><path class="cls-2" d="M80,101.34c1.08,1.24,1,2.29-.51,3.1A3.34,3.34,0,0,1,80,101.34Z"/><path class="cls-2" d="M79.09,108.34c1.07,1.14.88,2.16-.3,3.07A3,3,0,0,1,79.09,108.34Z"/><path class="cls-2" d="M150.8,173.23c-.78-1.36-3.35-2.75.08-4C150.85,170.55,150.83,171.89,150.8,173.23Z"/><path class="cls-5" d="M180.76,228.1c1.92.47,1.9,1.93,1.75,3.46C181,230.87,180.86,229.5,180.76,228.1Z"/><path class="cls-5" d="M131.44,316c1.43.66,1.46,1.33,0,2Z"/><path class="cls-6" d="M36.23,307.94a2.58,2.58,0,0,1-3.95.06A5.89,5.89,0,0,1,36.23,307.94Z"/><path class="cls-5" d="M84,225.84c1.29.71,1.09,1.47.09,2.27A2,2,0,0,1,84,225.84Z"/><path class="cls-3" d="M16.88,289.61c-.62,1.06-1.37,2.92-2.57,2.08-1.61-1.12,0-2.36,1-3.34Z"/><path class="cls-5" d="M131.62,292.92c1.12.76,1.18,1.46-.11,2.09A1.89,1.89,0,0,1,131.62,292.92Z"/><path class="cls-6" d="M196.17,124.57c-1.7-1.16-1.67-2.34,0-3.54A5,5,0,0,1,196.17,124.57Z"/><path class="cls-6" d="M196.14,116.6c-.4-.47-.81-.93-1.19-1.42a6.33,6.33,0,0,1,.53-.49l.69,1.78Z"/><path class="cls-4" d="M78.08,211.15l-1.73.07c0-.83.18-1.8,1.07-1.81C78.58,209.41,78.17,210.43,78.08,211.15Z"/><path class="cls-5" d="M56.17,307.35c-.59,1.78-1.64.57-2.53.4A2.76,2.76,0,0,1,56.17,307.35Z"/><path class="cls-6" d="M27.25,308.07c-.64.83-1.28.84-1.93,0Z"/><path class="cls-4" d="M109.06,353.87l-2.21-1.06C107.76,352.8,109,352.07,109.06,353.87Z"/><path class="cls-2" d="M147.49,120.22l-1.7.1a1.12,1.12,0,0,1-.23-.79l1.3-.7Z"/><path class="cls-2" d="M129.93,94.3l1,1-.8.67-.86-.78Z"/><path class="cls-4" d="M17.11,300.07l1.2.85C17.61,301.07,17.12,300.91,17.11,300.07Z"/><path class="cls-6" d="M188.37,240.27l1.49,1.32C188.66,241.94,188.38,241.27,188.37,240.27Z"/><path class="cls-3" d="M14.35,293,13,291.78c.47-.15.77-.9,1.46-.26S14.47,292.54,14.35,293Z"/><path class="cls-6" d="M62,76.37c-.25-.41-.51-.81-.76-1.21C61.49,75.56,61.75,76,62,76.37Z"/><path class="cls-6" d="M15.33,308.11c-.33.41-.67.42-1,0Z"/><path class="cls-6" d="M65.09,411.76c.89,1.22,4.77,1.71,1,4.06l-2,0C65.73,414.78,60.47,412,65.09,411.76Z"/><path class="cls-4" d="M36.52,471.49l.06-1.55c.38.19,1,.33,1.07.59C37.83,471.35,37.13,471.43,36.52,471.49Z"/><polygon class="cls-4" points="37.77 474.48 37.89 474.83 37.57 474.78 37.77 474.48"/><path class="cls-6" d="M63.16,416.76l1-1Z"/><path class="cls-1" d="M94.4,119.69a29.14,29.14,0,0,1,9.44-8.61c.62-.39,1.64-1.59,2.17.22-.73,1.42-3.15,1.37-3,4.61,7.38-4.18,15.09-4.44,22.92-3.66,12.5,5.15,18.78,14.37,18.32,28-2.18,12.44-7.52,21.82-20.34,26.86-9.71,3.81-26.61-4.85-29.1-12.77-1.28-4.08-2.09-8.31-3.11-12.47.1-2.2.21-4.41.31-6.61.78-5.86,3.9-10.65,7.23-15.28-1.74-1.38-2.92-.32-4.16.38C94.86,120.15,94.63,119.92,94.4,119.69Zm17.51,8.87c0-2.68.12-5.76-3.69-5.7a8.82,8.82,0,0,0-7.54,4.93c-1.32,3-.41,6.83,1.63,9.9.66,1,1.54.93,2.59.62C108.69,137.17,111.94,132.72,111.91,128.56Z"/><path class="cls-1" d="M145.56,119.53a1.12,1.12,0,0,0,.23.79q1.23,3.09,2.45,6.17,1.32,6.9,2.63,13.8a34.64,34.64,0,0,0-1,9,27.94,27.94,0,0,1-8.25,15.9l-1.92,1.73-1,1.26-.13-.23c-.84.5-2.32.39-2,2l.13,0c-1.12-.51-1.62.18-2,1.05l0-.24c-2,.76-4,1.48-6,2.26-15.34,6-36.63-1.42-41-19.62-2.69-11.22-2.93-24,6.66-33.79.23.23.46.46.68.7-1.65,4.07-4.3,7.77-4.69,12.32-1.64.26-1.38,1.47-1.3,2.59a17.27,17.27,0,0,0,.08,7c.63,6.4,1.56,12.7,5.25,18.23,8.43,12.65,30.08,14.21,42,4.87,8.51-6.64,10.32-14.7,11.11-24,1.55-8.58-1.69-15.89-6-22.92-.36-2-1.78-2.86-3.67-3.1h0c-.36-1.32-.28-2.29,1.47-1.59C142.14,114.84,143.56,117.51,145.56,119.53Z"/><path class="cls-4" d="M130.85,98.32c.86,3.46,6.18,5.61,3,10.26l-3.89-.53c-3-5.56-8.07-1.69-12.07-2.69,0-2.56,0-5.11,0-7.67C122.23,97.26,126.59,96.78,130.85,98.32Z"/><path class="cls-1" d="M124.56,185.11l-5.66,2.13c-1.31-.15-2.63-.23-3.92-.49-2.14-.42-4.36-1-5.09-3.35-.78-2.51,1.1-4.24,2.83-5.29,1.89-1.14,4-3.25,6.6-1.1S126.47,180,124.56,185.11Z"/><path class="cls-2" d="M117.92,105.36c4,1,9.08-2.87,12.07,2.69-1,.74-.38,1.55-.11,2.34l-3.95,1.86c-7.83-.78-15.54-.52-22.92,3.66-.15-3.24,2.27-3.19,3-4.61l-.18,0,2.94-1.14a81.87,81.87,0,0,1,13.83-2.45L117.66,106A1.27,1.27,0,0,1,117.92,105.36Z"/><path class="cls-1" d="M130.85,98.32c-4.26-1.54-8.62-1.06-13-.63-3.63-.6-7.49.23-11-1.62,2.29-5.22,7-3.6,11-4.22l6,.46,5.39,2.9.85.78Z"/><path class="cls-5" d="M117.66,106l4.94,1.78a81.87,81.87,0,0,0-13.83,2.45l.18-1.81C111.47,106.22,114.6,106.2,117.66,106Z"/><path class="cls-1" d="M109,108.4l-.18,1.81-2.94,1.14C105.21,108.61,108,109.46,109,108.4Z"/><path class="cls-3" d="M106,398.38c.06-7.72,1.64-15.36,1.46-23.13a45.39,45.39,0,0,0,0-5.83c-.58-4,1.45-7.18,4.71-9.13a11.4,11.4,0,0,1,10.23-.8c6.93,2.43,6.76,8.44,7.41,13.63.71,5.63.3,11.45-.1,17.15-.58,8.27-6.67,13.66-11.27,19.71-1.59,2.09-4.43,3.85-7.4,3.17s-3.15-3.34-3.83-6.1A33.27,33.27,0,0,1,106,398.38Z"/><path class="cls-2" d="M134.87,419.78c-.93-.24-1.9-.48-1.62-1.78,0-.21.46-.54.62-.5,1.28.34.78,1.48,1,2.31Z"/><path class="cls-2" d="M100.67,417.94c-.1,0-.26.1-.29.06s-.08-.21-.12-.32.26-.1.3-.07A.86.86,0,0,1,100.67,417.94Z"/><path class="cls-3" d="M134.73,171.08c.41-.87.91-1.56,2-1.05,0,.35,0,.71,0,1.07Z"/><path class="cls-2" d="M65.06,254.07c.6-1.92,1.16-3.87,3-5C68.16,251.38,68.12,253.64,65.06,254.07Z"/><path class="cls-2" d="M69,247.08c.71-1.63,1.41-3.27,2.12-4.91C72.87,244.85,71.92,246.39,69,247.08Z"/><path class="cls-2" d="M68.07,249.1a2.25,2.25,0,0,1,1-2.06Z"/><path class="cls-2" d="M64.07,255.18,65.14,254Z"/><path class="cls-6" d="M96.07,61.43a93.75,93.75,0,0,1,7.15-18.9c4,.81,6.62,7.92,4.62,12.71C105.66,60.47,101.78,62.5,96.07,61.43Z"/><path class="cls-2" d="M166.76,456.77c0-1.57-.59-3.37,1.58-4.09C170.92,455.24,168.93,456,166.76,456.77Z"/><path class="cls-2" d="M186.51,109.18l-2.55.26a9.2,9.2,0,0,1-2.29-7c.41-6.12.06-12.28.16-18.42a9.9,9.9,0,0,1,1.58-5.66c1.88,1.24,2.16,3.17,2.23,5.2Z"/><path class="cls-4" d="M206,287.38c-.16,1.34-1.17,1.9-1.74,1.46-4.43-3.44-11.09-2.29-14.73-7.35-2-2.82-5.53-6.34-3.2-9,1.8-2.07,5.22,1.88,7.51,3.6,3.69,2.76,7,6.09,10.37,9.22A22.56,22.56,0,0,1,206,287.38Z"/><path class="cls-6" d="M39.08,311.7a163.7,163.7,0,0,1-26.82,1.24,2.21,2.21,0,0,1-1.9-1.24Z"/><path class="cls-2" d="M56.3,341.91l-.06,3.75c-1.1,1-1.91,2.62-3.85,2.09-.1-2-.06-4-.31-6-.4-3.18,1.09-4.23,4-3.95C56.15,339.19,56.22,340.55,56.3,341.91Z"/><path class="cls-4" d="M52.39,347.75c1.94.53,2.75-1.05,3.85-2.09.34,2.06.67,4.12,1,6.18C54.71,351.57,53.33,349.93,52.39,347.75Z"/><path class="cls-4" d="M125.93,112.25l3.95-1.86a6.15,6.15,0,0,1,3.51,1.93c.49,2.49,2.23,3.1,4.46,3h0c.12,2.34,1.62,3,3.67,3.1,4.34,7,7.58,14.34,6,22.92-1.39.56-1.51-2.93-3.31-1.05C144.71,126.62,138.43,117.4,125.93,112.25Z"/><path class="cls-5" d="M133.39,112.32a6.15,6.15,0,0,0-3.51-1.93c-.27-.79-.84-1.6.11-2.34l3.89.53C134,109.87,137.27,111.57,133.39,112.32Z"/><path class="cls-2" d="M136.63,170c-.33-1.65,1.15-1.54,2-2C138.87,169.54,138.16,170.17,136.63,170Z"/><path class="cls-2" d="M138.75,168.2l1-1.26Z"/><path class="cls-3" d="M144.25,140.28c1.8-1.88,1.92,1.61,3.31,1.05-.79,9.35-2.6,17.41-11.11,24-11.95,9.34-33.6,7.78-42-4.87-3.69-5.53-4.62-11.83-5.25-18.23l2.53-.38c1,4.16,1.83,8.39,3.11,12.47,2.49,7.92,19.39,16.58,29.1,12.77C136.73,162.1,142.07,152.72,144.25,140.28Z"/><path class="cls-3" d="M111.91,128.56c0,4.16-3.22,8.61-7,9.75-1.05.31-1.93.38-2.59-.62-2-3.07-3-6.9-1.63-9.9a8.82,8.82,0,0,1,7.54-4.93C112,122.8,111.87,125.88,111.91,128.56Z"/><path class="cls-3" d="M90.39,132.71c.39-4.55,3-8.25,4.69-12.32,1.24-.7,2.42-1.76,4.16-.38-3.33,4.63-6.45,9.42-7.23,15.28a5.13,5.13,0,0,0-1,0Z"/><path class="cls-4" d="M91.05,135.29a5.13,5.13,0,0,1,1,0c-.1,2.2-.21,4.41-.31,6.61l-2.53.38a17.27,17.27,0,0,1-.08-7Z"/><path class="cls-2" d="M141.53,118.41c-2.05,0-3.55-.76-3.67-3.1C139.75,115.55,141.17,116.36,141.53,118.41Z"/><path class="cls-2" d="M91.05,135.29h-2c-.08-1.12-.34-2.33,1.3-2.59Z"/></g></g></svg>